<svg width="2170.7" height="587.74" xmlns="http://www.w3.org/2000/svg"><defs><filter id="c" x="-.008" y="-.071" width="1.016" height="1.141" color-interpolation-filters="sRGB"><feGaussianBlur stdDeviation=".157"/></filter><filter id="b" x="-.022" y="-.189" width="1.043" height="1.378" color-interpolation-filters="sRGB"><feGaussianBlur stdDeviation=".42"/></filter><filter id="a" x="-.107" y="-.933" width="1.214" height="2.866" color-interpolation-filters="sRGB"><feGaussianBlur stdDeviation="2.072"/></filter></defs><path d="M15.414 7.366c-.185.106-.332.16-.441.16l-1.817 4.289c-.096.226-.203.375-.32.445s-.277.112-.48.125c-.024.024-.036.068-.036.133 0 .063.012.105.035.129.396-.01.635-.016.715-.016.287 0 .628.005 1.024.016.023-.024.035-.066.035-.129 0-.065-.012-.11-.035-.133a6.618 6.618 0 0 1-.23-.02 1.673 1.673 0 0 1-.114-.023 5.491 5.491 0 0 1-.094-.035.283.283 0 0 1-.078-.047.28.28 0 0 1-.047-.062.198.198 0 0 1-.02-.09.373.373 0 0 1 .028-.11l.441-1.16c.021-.054.05-.09.086-.11a.483.483 0 0 1 .196-.026h1.687l.465 1.355c.013.037.02.07.023.098s0 .053-.011.074a.187.187 0 0 1-.032.055.133.133 0 0 1-.058.035l-.074.027a.565.565 0 0 1-.094.012l-.106.012a3.189 3.189 0 0 1-.12.007l-.122.008c-.023.024-.035.068-.035.133 0 .062.012.105.035.129.396-.01.745-.016 1.047-.016.214 0 .518.005.914.016.024-.024.035-.067.035-.129 0-.065-.011-.11-.035-.133l-.156-.015a4.715 4.715 0 0 1-.129-.02.39.39 0 0 1-.14-.043l-.106-.074a.392.392 0 0 1-.11-.117 1.06 1.06 0 0 1-.078-.172zm-17.005 0c0 .054.004.142.004.181.315-.004.772.547.91.887.565 1.399 1.156 2.784 1.72 4.18 0 .003.178.007.181.003.372-.802.803-1.647 1.194-2.456l.985 2.456h.164c.625-1.508 1.567-3.826 1.868-4.561.13-.312.333-.502.671-.513l.004-.155-.003-.006-1.537-.014v.177c.13.002.464.066.568.36l-1.473 3.594c-.07-.176-.755-1.788-.832-1.993l.712-1.562a.881.881 0 0 1 .699-.403v-.173c-.145.004-.947.004-1.481.008-.004.042 0 .127-.004.173.418.01.572.112.465.374-.162.399-.512 1.144-.58 1.282-.21-.466-.35-.823-.578-1.332-.104-.233.12-.324.354-.332v-.167L.706 7.37v.177c.237.004.554.024.67.25.172.333.71 1.676.877 2.036-.21.427-.726 1.439-.906 1.816-.265-.614-1.248-3.038-1.511-3.67-.114-.267.29-.422.52-.436v-.177zm16.61.824h.05l.75 2.176h-1.413a.459.459 0 0 1-.18-.024c-.031-.015-.04-.043-.023-.082zm17.088.959c-.016 0-.023.005-.023.015-.02.22-.064.479-.133.774a.517.517 0 0 0 .183.025c.05-.205.134-.348.25-.433a.738.738 0 0 1 .453-.131h.26c.094 0 .16.044.196.133.038.088.056.22.056.396v2.05c0 .077-.002.142-.008.192a.413.413 0 0 1-.033.13.272.272 0 0 1-.056.083.242.242 0 0 1-.098.05.73.73 0 0 1-.135.023 4.606 4.606 0 0 1-.187.011c-.016.016-.024.045-.024.088 0 .042.008.07.024.086.347-.007.597-.01.748-.01.139 0 .384.003.738.01.016-.016.023-.044.023-.086 0-.043-.007-.072-.023-.088-.082-.003-.144-.008-.19-.011a.74.74 0 0 1-.132-.024.265.265 0 0 1-.1-.049.305.305 0 0 1-.055-.084.413.413 0 0 1-.033-.129 2.815 2.815 0 0 1-.006-.191V9.944c0-.183.018-.32.053-.41.036-.09.101-.135.193-.135h.118c.208 0 .372.041.494.125.121.083.204.224.248.424a.463.463 0 0 0 .18-.026 6.099 6.099 0 0 1-.069-.758c0-.001-.002-.004-.006-.007-.003-.006-.006-.008-.01-.008a14.41 14.41 0 0 1-1.195.04h-.459c-.467 0-.881-.012-1.242-.04zm8.316.006v0c-.038 0-.141.005-.308.017a5.49 5.49 0 0 1-.36.018c-.104 0-.333-.003-.687-.01-.016.016-.023.045-.023.088s.007.074.023.09c.106.005.184.01.232.02.05.006.095.027.135.062.042.033.068.08.078.14.012.061.02.15.02.262v2.137c0 .076-.003.141-.008.191a.467.467 0 0 1-.031.13.269.269 0 0 1-.053.083.23.23 0 0 1-.088.049.595.595 0 0 1-.12.023 3.642 3.642 0 0 1-.165.012c-.016.016-.023.045-.023.088 0 .042.007.07.023.086.347-.007.579-.01.693-.01.105 0 .334.003.688.01.016-.016.023-.044.023-.086 0-.043-.007-.072-.023-.088-.071-.003-.126-.008-.166-.012a.586.586 0 0 1-.117-.023.24.24 0 0 1-.09-.049.268.268 0 0 1-.05-.084.467.467 0 0 1-.032-.129 1.936 1.936 0 0 1-.008-.191v-.9c.144 0 .259.01.344.029a.497.497 0 0 1 .183.064c.037.026.07.063.098.11l.57.927c.197.316.43.473.704.473.1 0 .174-.01.222-.035a.141.141 0 0 0-.004-.129.399.399 0 0 1-.277-.102 1.425 1.425 0 0 1-.234-.308l-.674-1.121c.067-.023.138-.055.21-.098s.149-.1.227-.172a.865.865 0 0 0 .273-.64.882.882 0 0 0-.671-.875 2.563 2.563 0 0 0-.533-.047zm-12.98.015v0c-.081.014-.167.02-.26.02h-1.359l-.69-.01c-.015.016-.023.045-.023.088s.008.074.024.09c.085.003.148.009.191.015a.486.486 0 0 1 .13.034.158.158 0 0 1 .09.08c.016.034.03.08.038.136.01.056.016.129.016.22v2.136c0 .076-.003.141-.008.191a.39.39 0 0 1-.086.213.205.205 0 0 1-.088.049.577.577 0 0 1-.119.023 3.637 3.637 0 0 1-.164.012c-.016.016-.024.045-.024.088 0 .042.008.07.024.086l.695-.01h1.145c.17 0 .399.003.683.01.089-.31.154-.608.198-.89a.239.239 0 0 0-.188-.026c-.06.217-.146.387-.256.512a.555.555 0 0 1-.441.185h-.727a.177.177 0 0 1-.14-.06.262.262 0 0 1-.051-.168v-1.287h.484c.089 0 .164.005.223.017.06.01.108.024.14.04a.155.155 0 0 1 .075.077c.017.037.03.07.035.1.005.028.008.072.012.13.015.017.046.024.09.024s.072-.007.087-.023a22.38 22.38 0 0 1-.01-.469c0-.095.003-.249.01-.46-.015-.016-.044-.024-.088-.024s-.074.008-.09.023c-.003.057-.006.1-.01.13a.412.412 0 0 1-.023.093.134.134 0 0 1-.045.07.35.35 0 0 1-.082.043.535.535 0 0 1-.13.024c-.05.003-.116.003-.194.003h-.484V9.64c0-.068.018-.125.05-.168a.163.163 0 0 1 .141-.066h.563c.066 0 .123.005.174.015.05.01.094.029.132.055.04.026.074.052.1.08a1.299 1.299 0 0 1 .137.258c.015.042.036.099.058.172.063.01.12.002.176-.026a13.247 13.247 0 0 0-.064-.443 5.414 5.414 0 0 0-.055-.33c0-.01-.008-.016-.022-.016zm17.031 0v0c-.081.014-.167.02-.26.02h-1.359l-.69-.01c-.015.016-.023.045-.023.088s.008.074.024.09c.085.003.148.009.191.015a.486.486 0 0 1 .13.034.159.159 0 0 1 .089.08c.017.034.03.08.04.136.01.056.015.129.015.22v2.136c0 .076-.003.141-.008.191a.39.39 0 0 1-.086.213.205.205 0 0 1-.088.049.577.577 0 0 1-.119.023 3.641 3.641 0 0 1-.164.012c-.016.016-.024.045-.024.088 0 .042.008.07.024.086l.695-.01h1.145c.17 0 .399.003.683.01.089-.31.154-.608.198-.89a.239.239 0 0 0-.188-.026c-.06.217-.146.387-.256.512a.555.555 0 0 1-.441.185h-.727a.177.177 0 0 1-.14-.06.262.262 0 0 1-.051-.168v-1.287h.484c.089 0 .164.005.223.017.06.01.108.024.14.04a.155.155 0 0 1 .075.077c.017.037.03.07.035.1.005.028.008.072.012.13.015.017.046.024.09.024s.072-.007.087-.023a22.38 22.38 0 0 1-.01-.469c0-.095.003-.249.01-.46-.015-.016-.044-.024-.088-.024s-.074.008-.09.023c-.003.057-.006.1-.01.13a.412.412 0 0 1-.023.093.134.134 0 0 1-.045.07.35.35 0 0 1-.082.043.535.535 0 0 1-.13.024c-.05.003-.116.003-.194.003h-.484V9.64c0-.068.018-.125.05-.168a.163.163 0 0 1 .141-.066h.563c.066 0 .123.005.174.015.05.01.094.029.132.055.04.026.074.052.1.08a1.299 1.299 0 0 1 .137.258c.015.042.036.099.058.172.063.01.12.002.176-.026a13.274 13.274 0 0 0-.064-.443 5.437 5.437 0 0 0-.055-.33c0-.01-.008-.016-.022-.016zm-37.25.01v0c-.015.016-.023.045-.023.088s.008.074.023.09c.106.005.184.01.233.02.05.006.095.027.135.062.041.033.067.08.078.14.012.061.02.15.02.262v2.137c0 .076-.003.141-.008.191a.468.468 0 0 1-.032.13.27.27 0 0 1-.052.083.23.23 0 0 1-.088.05.596.596 0 0 1-.121.023 3.638 3.638 0 0 1-.164.011c-.016.016-.024.045-.024.088 0 .042.008.07.024.086.347-.007.578-.01.693-.01.104 0 .333.003.687.01.016-.016.024-.044.024-.086 0-.043-.008-.072-.024-.088-.07-.003-.126-.008-.166-.011a.587.587 0 0 1-.117-.024.24.24 0 0 1-.09-.049.268.268 0 0 1-.05-.084.467.467 0 0 1-.032-.129 1.933 1.933 0 0 1-.007-.191v-.996a.552.552 0 0 1 .44.203l.84 1.055c.053.066.095.131.13.199a.531.531 0 0 1 .06.17c.004.02.014.031.03.031.142-.007.236-.01.285-.01l.539.01c.015-.016.023-.044.023-.086 0-.043-.008-.072-.023-.088l-.055-.006-.072-.007-.072-.022a.664.664 0 0 1-.092-.039.67.67 0 0 1-.178-.152L8.83 10.854c-.045-.054-.068-.098-.068-.133 0-.016.002-.029.006-.04a.375.375 0 0 1 .048-.077c.03-.038.074-.086.131-.145l.783-.804a.867.867 0 0 1 .33-.23c.066-.027.181-.048.344-.067.016-.016.024-.047.024-.09s-.008-.072-.024-.088l-.508.01c-.067 0-.268-.003-.601-.01-.016.016-.024.045-.024.088s.008.074.024.09l.084.008c.017.002.04.004.068.011.03.005.048.013.059.022a.116.116 0 0 1 .035.031c.01.012.013.028.008.047a.272.272 0 0 1-.035.064.48.48 0 0 1-.07.092l-.88.938a.648.648 0 0 1-.422.209v-.938c0-.113.006-.2.016-.262a.235.235 0 0 1 .078-.14.267.267 0 0 1 .135-.063c.05-.008.128-.014.234-.02.016-.015.024-.046.024-.09s-.008-.071-.024-.087c-.347.007-.578.01-.693.01-.104 0-.333-.003-.687-.01zm3.594 0v0c-.015.016-.023.045-.023.088s.008.074.023.09c.106.005.184.01.233.02.05.006.095.027.135.062.041.033.067.08.078.14.012.061.02.15.02.262v2.137c0 .076-.003.141-.009.191a.468.468 0 0 1-.03.13.27.27 0 0 1-.054.083.23.23 0 0 1-.088.05.596.596 0 0 1-.12.023 3.642 3.642 0 0 1-.165.011c-.015.016-.023.045-.023.088 0 .042.008.07.023.086.348-.007.58-.01.694-.01.104 0 .333.003.687.01.016-.016.024-.044.024-.086 0-.043-.008-.072-.024-.088-.071-.003-.126-.008-.166-.011a.586.586 0 0 1-.117-.024.24.24 0 0 1-.09-.049.268.268 0 0 1-.05-.084.467.467 0 0 1-.032-.129 1.936 1.936 0 0 1-.008-.191V9.842c0-.113.006-.2.016-.261a.235.235 0 0 1 .078-.141.267.267 0 0 1 .135-.063c.05-.008.128-.014.234-.02.016-.015.024-.046.024-.089s-.008-.072-.024-.088c-.347.007-.579.01-.693.01-.104 0-.334-.003-.688-.01zm7.147 0h0c-.016.016-.024.045-.024.088s.008.074.024.09c.106.005.184.01.232.02.05.006.095.027.135.062.042.033.068.08.078.14.012.061.018.15.018.262v2.137c0 .076-.003.141-.008.191a.467.467 0 0 1-.031.13.268.268 0 0 1-.051.083.24.24 0 0 1-.09.05.578.578 0 0 1-.12.023 3.64 3.64 0 0 1-.163.011c-.016.016-.024.045-.024.088 0 .042.008.07.024.086a22.192 22.192 0 0 1 1.047-.006c.2.004.405.006.617.006.113 0 .225-.008.334-.021.11-.016.222-.042.34-.079.118-.036.227-.08.328-.136a1.409 1.409 0 0 0 .53-.514c.065-.113.117-.246.155-.398a2.11 2.11 0 0 0 .057-.506c0-.245-.047-.477-.144-.7a1.781 1.781 0 0 0-.977-.96 1.81 1.81 0 0 0-.719-.147c-.125 0-.289.003-.49.006l-.39.004c-.105 0-.334-.003-.688-.01zm3.539 0h0c-.016.016-.023.045-.022.088.002.043.012.074.028.09.04.003.074.006.101.01a.265.265 0 0 1 .08.023l.063.026a.154.154 0 0 1 .053.046.472.472 0 0 1 .086.145c.019.042.032.075.043.102l.052.132 1.053 2.729c.033.083.073.125.121.125.05 0 .094-.042.129-.125l1.104-2.719.048-.125.053-.102a.36.36 0 0 1 .068-.101c.021-.02.048-.045.082-.072s.074-.049.118-.063a.896.896 0 0 1 .154-.031c.016-.016.023-.047.023-.09s-.007-.072-.023-.088l-.469.01c-.054 0-.247-.003-.58-.01-.016.016-.023.045-.023.088s.008.074.023.09c.078.005.141.015.19.031.05.016.087.034.11.057a.126.126 0 0 1 .044.093.357.357 0 0 1-.012.12c-.01.041-.026.093-.05.156l-.842 2.139h-.026l-.85-2.172c-.064-.158-.08-.265-.046-.319s.14-.088.318-.105c.016-.016.023-.047.023-.09s-.007-.072-.023-.088c-.333.007-.55.01-.646.01l-.555-.01zm13.869 0v0c-.016.016-.024.045-.024.088s.008.074.024.09c.092.005.16.01.203.02.043.008.085.029.121.062.037.031.06.078.07.14.013.061.018.15.018.262v1.531c0 .209.029.394.086.555.057.16.128.285.213.38a1.231 1.231 0 0 0 .63.344c.105.02.211.03.319.03a1.8 1.8 0 0 0 .559-.078c.16-.054.29-.127.39-.219.1-.092.182-.207.242-.345.063-.141.107-.29.13-.446.024-.156.034-.336.034-.537V9.721a.749.749 0 0 1 .012-.096l.016-.076c.003-.022.011-.04.025-.058l.032-.043c.006-.012.022-.023.044-.032a.452.452 0 0 1 .118-.035c.033-.007.056-.012.072-.013l.092-.01c.015-.016.023-.047.023-.09s-.008-.072-.023-.088l-.545.01c-.058 0-.263-.003-.617-.01-.016.016-.024.045-.024.088s.008.074.024.09l.11.01a.973.973 0 0 1 .093.013c.04.006.066.01.08.016.014.003.034.01.06.02.028.008.046.019.053.03l.035.044a.11.11 0 0 1 .03.058c.003.021.008.047.015.076.007.03.01.061.01.096.002.035.004.076.004.121v1.313c0 .097-.003.183-.008.262a1.957 1.957 0 0 1-.098.505.906.906 0 0 1-.113.213.685.685 0 0 1-.176.178.917.917 0 0 1-.252.111c-.099.028-.21.043-.336.043a.902.902 0 0 1-.632-.27.733.733 0 0 1-.155-.206.998.998 0 0 1-.082-.264 2.976 2.976 0 0 1-.031-.256 5.91 5.91 0 0 1-.006-.275V9.842c0-.076.002-.139.006-.187a.452.452 0 0 1 .031-.131.338.338 0 0 1 .051-.086c.02-.02.05-.035.094-.047a.696.696 0 0 1 .129-.023c.043-.004.103-.007.181-.01.016-.016.024-.047.024-.09s-.008-.072-.024-.088c-.347.007-.587.01-.72.01-.07 0-.283-.003-.637-.01zm-29.856 0c-.016.016-.024.045-.024.088s.008.074.024.09c.106.005.182.01.23.02a.26.26 0 0 1 .137.062c.042.033.068.08.078.14.012.061.018.15.018.262v2.137c0 .076-.003.141-.008.191a.468.468 0 0 1-.031.13.27.27 0 0 1-.053.083.23.23 0 0 1-.088.05.578.578 0 0 1-.119.023 3.638 3.638 0 0 1-.164.011c-.016.016-.023.045-.023.088 0 .042.007.07.023.086.347-.007.577-.01.691-.01.104 0 .334.003.688.01.015-.016.023-.044.023-.086 0-.043-.008-.072-.023-.088-.071-.003-.126-.008-.166-.011a.586.586 0 0 1-.117-.024.23.23 0 0 1-.088-.049.27.27 0 0 1-.053-.084.467.467 0 0 1-.031-.129 1.933 1.933 0 0 1-.008-.191V9.842c0-.113.005-.2.016-.261a.235.235 0 0 1 .078-.141.267.267 0 0 1 .134-.063c.05-.008.129-.014.235-.02.015-.015.023-.046.023-.089s-.008-.072-.023-.088c-.347.007-.577.01-.692.01-.104 0-.333-.003-.687-.01zm22.613 0c-.016.016-.024.045-.024.088s.008.074.024.09c.106.007.2.046.277.117.08.071.127.145.145.223v2.224c0 .082-.003.15-.008.203a.42.42 0 0 1-.031.141.334.334 0 0 1-.051.094.216.216 0 0 1-.09.054.611.611 0 0 1-.119.034 4.105 4.105 0 0 1-.164.02c-.016.015-.024.044-.024.087 0 .042.008.07.024.086.347-.007.545-.01.596-.01.04 0 .237.003.591.01.016-.016.024-.044.024-.086 0-.043-.008-.072-.024-.088a3.999 3.999 0 0 1-.166-.02.905.905 0 0 1-.117-.03.216.216 0 0 1-.09-.055.463.463 0 0 1-.086-.23 3.589 3.589 0 0 1-.003-.21V10.29c0-.101.002-.17.007-.206s.016-.054.036-.054c.027 0 .087.057.18.174l1.862 2.351c.063.085.133.127.213.127a.1.1 0 0 0 .088-.043.197.197 0 0 0 .035-.12v-2.62c0-.122.006-.215.016-.28a.28.28 0 0 1 .078-.156.286.286 0 0 1 .135-.072c.05-.012.128-.023.234-.033.016-.016.024-.047.024-.09s-.008-.072-.024-.088c-.347.007-.545.01-.595.01-.04 0-.238-.003-.592-.01-.016.016-.024.045-.024.088s.008.074.024.09c.062.007.11.012.142.017.033.004.07.012.11.022a.19.19 0 0 1 .086.035c.019.016.04.036.058.06.021.025.034.056.041.094a1.77 1.77 0 0 1 .026.313v1.781c0 .06-.003.1-.008.125-.004.024-.014.037-.031.037-.009 0-.017-.005-.028-.011a.276.276 0 0 1-.037-.04l-.045-.054-.066-.086-.078-.104-1.828-2.357zm12.297.154v0c.472 0 .709.248.709.747 0 .161-.021.299-.065.41a.525.525 0 0 1-.193.25.823.823 0 0 1-.28.12c-.1.023-.22.036-.359.036h-.253V9.674c0-.227.146-.34.44-.34zm-21.098.028c.222 0 .42.036.598.105.178.07.324.161.437.276.115.113.21.246.287.4s.131.313.162.475c.032.16.047.326.047.498 0 .21-.026.395-.076.554-.049.158-.114.286-.197.385s-.188.18-.31.242c-.122.061-.25.103-.382.127-.13.023-.274.036-.433.036-.169 0-.296-.013-.383-.036-.087-.024-.142-.053-.164-.088a.272.272 0 0 1-.035-.148V9.623c0-.173.15-.261.449-.261z" fill="none" filter="url(#a)" stroke="#00d7f1" stroke-linecap="round" stroke-linejoin="round" stroke-width=".52" style="mix-blend-mode:normal" transform="translate(252.53 -92.024) scale(38.471)"/><g stroke-width=".026"><path d="M15.414 7.366c-.185.106-.332.16-.441.16l-1.817 4.289c-.096.226-.203.375-.32.445s-.277.112-.48.125c-.024.024-.036.068-.036.133 0 .063.012.105.035.129.396-.01.635-.016.715-.016.287 0 .628.005 1.024.016.023-.024.035-.066.035-.129 0-.065-.012-.11-.035-.133a6.618 6.618 0 0 1-.23-.02 1.673 1.673 0 0 1-.114-.023 5.491 5.491 0 0 1-.094-.035.283.283 0 0 1-.078-.047.28.28 0 0 1-.047-.062.198.198 0 0 1-.02-.09.373.373 0 0 1 .028-.11l.441-1.16c.021-.054.05-.09.086-.11a.483.483 0 0 1 .196-.026h1.687l.465 1.355c.013.037.02.07.023.098s0 .053-.011.074a.187.187 0 0 1-.032.055.133.133 0 0 1-.058.035l-.074.027a.565.565 0 0 1-.094.012l-.106.012a3.189 3.189 0 0 1-.12.007l-.122.008c-.023.024-.035.068-.035.133 0 .062.012.105.035.129.396-.01.745-.016 1.047-.016.214 0 .518.005.914.016.024-.024.035-.067.035-.129 0-.065-.011-.11-.035-.133l-.156-.015a4.715 4.715 0 0 1-.129-.02.39.39 0 0 1-.14-.043l-.106-.074a.392.392 0 0 1-.11-.117 1.06 1.06 0 0 1-.078-.172zm-17.005 0c0 .054.004.142.004.181.315-.004.772.547.91.887.565 1.399 1.156 2.784 1.72 4.18 0 .003.178.007.181.003.372-.802.803-1.647 1.194-2.456l.985 2.456h.164c.625-1.508 1.567-3.826 1.868-4.561.13-.312.333-.502.671-.513l.004-.155-.003-.006-1.537-.014v.177c.13.002.464.066.568.36l-1.473 3.594c-.07-.176-.755-1.788-.832-1.993l.712-1.562a.881.881 0 0 1 .699-.403v-.173c-.145.004-.947.004-1.481.008-.004.042 0 .127-.004.173.418.01.572.112.465.374-.162.399-.512 1.144-.58 1.282-.21-.466-.35-.823-.578-1.332-.104-.233.12-.324.354-.332v-.167L.706 7.37v.177c.237.004.554.024.67.25.172.333.71 1.676.877 2.036-.21.427-.726 1.439-.906 1.816-.265-.614-1.248-3.038-1.511-3.67-.114-.267.29-.422.52-.436v-.177zm16.61.824h.05l.75 2.176h-1.413a.459.459 0 0 1-.18-.024c-.031-.015-.04-.043-.023-.082zm17.088.959c-.016 0-.023.005-.023.015-.02.22-.064.479-.133.774a.517.517 0 0 0 .183.025c.05-.205.134-.348.25-.433a.738.738 0 0 1 .453-.131h.26c.094 0 .16.044.196.133.038.088.056.22.056.396v2.05c0 .077-.002.142-.008.192a.413.413 0 0 1-.033.13.272.272 0 0 1-.056.083.242.242 0 0 1-.098.05.73.73 0 0 1-.135.023 4.606 4.606 0 0 1-.187.011c-.016.016-.024.045-.024.088 0 .042.008.07.024.086.347-.007.597-.01.748-.01.139 0 .384.003.738.01.016-.016.023-.044.023-.086 0-.043-.007-.072-.023-.088-.082-.003-.144-.008-.19-.011a.74.74 0 0 1-.132-.024.265.265 0 0 1-.1-.049.305.305 0 0 1-.055-.084.413.413 0 0 1-.033-.129 2.815 2.815 0 0 1-.006-.191V9.944c0-.183.018-.32.053-.41.036-.09.101-.135.193-.135h.118c.208 0 .372.041.494.125.121.083.204.224.248.424a.463.463 0 0 0 .18-.026 6.099 6.099 0 0 1-.069-.758c0-.001-.002-.004-.006-.007-.003-.006-.006-.008-.01-.008a14.41 14.41 0 0 1-1.195.04h-.459c-.467 0-.881-.012-1.242-.04zm8.316.006c-.038 0-.141.005-.308.017a5.49 5.49 0 0 1-.36.018c-.104 0-.333-.003-.687-.01-.016.016-.023.045-.023.088s.007.074.023.09c.106.005.184.01.232.02.05.006.095.027.135.062.042.033.068.08.078.14.012.061.02.15.02.262v2.137c0 .076-.003.141-.008.191a.467.467 0 0 1-.031.13.269.269 0 0 1-.053.083.23.23 0 0 1-.088.049.595.595 0 0 1-.12.023 3.642 3.642 0 0 1-.165.012c-.016.016-.023.045-.023.088 0 .042.007.07.023.086.347-.007.579-.01.693-.01.105 0 .334.003.688.01.016-.016.023-.044.023-.086 0-.043-.007-.072-.023-.088-.071-.003-.126-.008-.166-.012a.586.586 0 0 1-.117-.023.24.24 0 0 1-.09-.049.268.268 0 0 1-.05-.084.467.467 0 0 1-.032-.129 1.936 1.936 0 0 1-.008-.191v-.9c.144 0 .259.01.344.029a.497.497 0 0 1 .183.064c.037.026.07.063.098.11l.57.927c.197.316.43.473.704.473.1 0 .174-.01.222-.035a.141.141 0 0 0-.004-.129.399.399 0 0 1-.277-.102 1.425 1.425 0 0 1-.234-.308l-.674-1.121c.067-.023.138-.055.21-.098s.149-.1.227-.172a.865.865 0 0 0 .273-.64.882.882 0 0 0-.671-.875 2.563 2.563 0 0 0-.533-.047zm-12.98.015c-.081.014-.167.02-.26.02h-1.359l-.69-.01c-.015.016-.023.045-.023.088s.008.074.024.09c.085.003.148.009.191.015a.486.486 0 0 1 .13.034.158.158 0 0 1 .09.08c.016.034.03.08.038.136.01.056.016.129.016.22v2.136c0 .076-.003.141-.008.191a.39.39 0 0 1-.086.213.205.205 0 0 1-.088.049.577.577 0 0 1-.119.023 3.637 3.637 0 0 1-.164.012c-.016.016-.024.045-.024.088 0 .042.008.07.024.086l.695-.01h1.145c.17 0 .399.003.683.01.089-.31.154-.608.198-.89a.239.239 0 0 0-.188-.026c-.06.217-.146.387-.256.512a.555.555 0 0 1-.441.185h-.727a.177.177 0 0 1-.14-.06.262.262 0 0 1-.051-.168v-1.287h.484c.089 0 .164.005.223.017.06.01.108.024.14.04a.155.155 0 0 1 .075.077c.017.037.03.07.035.1.005.028.008.072.012.13.015.017.046.024.09.024s.072-.007.087-.023a22.38 22.38 0 0 1-.01-.469c0-.095.003-.249.01-.46-.015-.016-.044-.024-.088-.024s-.074.008-.09.023c-.003.057-.006.1-.01.13a.412.412 0 0 1-.023.093.134.134 0 0 1-.045.07.35.35 0 0 1-.082.043.535.535 0 0 1-.13.024c-.05.003-.116.003-.194.003h-.484V9.64c0-.068.018-.125.05-.168a.163.163 0 0 1 .141-.066h.563c.066 0 .123.005.174.015.05.01.094.029.132.055.04.026.074.052.1.08a1.299 1.299 0 0 1 .137.258c.015.042.036.099.058.172.063.01.12.002.176-.026a13.247 13.247 0 0 0-.064-.443 5.414 5.414 0 0 0-.055-.33c0-.01-.008-.016-.022-.016zm17.031 0c-.081.014-.167.02-.26.02h-1.359l-.69-.01c-.015.016-.023.045-.023.088s.008.074.024.09c.085.003.148.009.191.015a.486.486 0 0 1 .13.034.159.159 0 0 1 .089.08c.017.034.03.08.04.136.01.056.015.129.015.22v2.136c0 .076-.003.141-.008.191a.39.39 0 0 1-.086.213.205.205 0 0 1-.088.049.577.577 0 0 1-.119.023 3.641 3.641 0 0 1-.164.012c-.016.016-.024.045-.024.088 0 .042.008.07.024.086l.695-.01h1.145c.17 0 .399.003.683.01.089-.31.154-.608.198-.89a.239.239 0 0 0-.188-.026c-.06.217-.146.387-.256.512a.555.555 0 0 1-.441.185h-.727a.177.177 0 0 1-.14-.06.262.262 0 0 1-.051-.168v-1.287h.484c.089 0 .164.005.223.017.06.01.108.024.14.04a.155.155 0 0 1 .075.077c.017.037.03.07.035.1.005.028.008.072.012.13.015.017.046.024.09.024s.072-.007.087-.023a22.38 22.38 0 0 1-.01-.469c0-.095.003-.249.01-.46-.015-.016-.044-.024-.088-.024s-.074.008-.09.023c-.003.057-.006.1-.01.13a.412.412 0 0 1-.023.093.134.134 0 0 1-.045.07.35.35 0 0 1-.082.043.535.535 0 0 1-.13.024c-.05.003-.116.003-.194.003h-.484V9.64c0-.068.018-.125.05-.168a.163.163 0 0 1 .141-.066h.563c.066 0 .123.005.174.015.05.01.094.029.132.055.04.026.074.052.1.08a1.299 1.299 0 0 1 .137.258c.015.042.036.099.058.172.063.01.12.002.176-.026a13.274 13.274 0 0 0-.064-.443 5.437 5.437 0 0 0-.055-.33c0-.01-.008-.016-.022-.016zm-37.25.01c-.015.016-.023.045-.023.088s.008.074.023.09c.106.005.184.01.233.02.05.006.095.027.135.062.041.033.067.08.078.14.012.061.02.15.02.262v2.137c0 .076-.003.141-.008.191a.468.468 0 0 1-.032.13.27.27 0 0 1-.052.083.23.23 0 0 1-.088.05.596.596 0 0 1-.121.023 3.638 3.638 0 0 1-.164.011c-.016.016-.024.045-.024.088 0 .042.008.07.024.086.347-.007.578-.01.693-.01.104 0 .333.003.687.01.016-.016.024-.044.024-.086 0-.043-.008-.072-.024-.088-.07-.003-.126-.008-.166-.011a.587.587 0 0 1-.117-.024.24.24 0 0 1-.09-.049.268.268 0 0 1-.05-.084.467.467 0 0 1-.032-.129 1.933 1.933 0 0 1-.007-.191v-.996a.552.552 0 0 1 .44.203l.84 1.055c.053.066.095.131.13.199a.531.531 0 0 1 .06.17c.004.02.014.031.03.031.142-.007.236-.01.285-.01l.539.01c.015-.016.023-.044.023-.086 0-.043-.008-.072-.023-.088l-.055-.006-.072-.007-.072-.022a.664.664 0 0 1-.092-.039.67.67 0 0 1-.178-.152L8.83 10.854c-.045-.054-.068-.098-.068-.133 0-.016.002-.029.006-.04a.375.375 0 0 1 .048-.077c.03-.038.074-.086.131-.145l.783-.804a.867.867 0 0 1 .33-.23c.066-.027.181-.048.344-.067.016-.016.024-.047.024-.09s-.008-.072-.024-.088l-.508.01c-.067 0-.268-.003-.601-.01-.016.016-.024.045-.024.088s.008.074.024.09l.084.008c.017.002.04.004.068.011.03.005.048.013.059.022a.116.116 0 0 1 .035.031c.01.012.013.028.008.047a.272.272 0 0 1-.035.064.48.48 0 0 1-.07.092l-.88.938a.648.648 0 0 1-.422.209v-.938c0-.113.006-.2.016-.262a.235.235 0 0 1 .078-.14.267.267 0 0 1 .135-.063c.05-.008.128-.014.234-.02.016-.015.024-.046.024-.09s-.008-.071-.024-.087c-.347.007-.578.01-.693.01-.104 0-.333-.003-.687-.01zm3.594 0c-.015.016-.023.045-.023.088s.008.074.023.09c.106.005.184.01.233.02.05.006.095.027.135.062.041.033.067.08.078.14.012.061.02.15.02.262v2.137c0 .076-.003.141-.009.191a.468.468 0 0 1-.03.13.27.27 0 0 1-.054.083.23.23 0 0 1-.088.05.596.596 0 0 1-.12.023 3.642 3.642 0 0 1-.165.011c-.015.016-.023.045-.023.088 0 .042.008.07.023.086.348-.007.58-.01.694-.01.104 0 .333.003.687.01.016-.016.024-.044.024-.086 0-.043-.008-.072-.024-.088-.071-.003-.126-.008-.166-.011a.586.586 0 0 1-.117-.024.24.24 0 0 1-.09-.049.268.268 0 0 1-.05-.084.467.467 0 0 1-.032-.129 1.936 1.936 0 0 1-.008-.191V9.842c0-.113.005-.2.016-.261a.235.235 0 0 1 .078-.141.267.267 0 0 1 .135-.063c.05-.008.128-.014.234-.02.016-.015.024-.046.024-.089s-.008-.072-.024-.088c-.347.007-.579.01-.693.01-.104 0-.334-.003-.688-.01zm7.147 0c-.016.016-.024.045-.024.088s.008.074.024.09c.106.005.184.01.232.02.05.006.095.027.135.062.042.033.068.08.078.14.012.061.018.15.018.262v2.137c0 .076-.003.141-.008.191a.467.467 0 0 1-.031.13.268.268 0 0 1-.051.083.24.24 0 0 1-.09.05.578.578 0 0 1-.12.023 3.64 3.64 0 0 1-.163.011c-.016.016-.024.045-.024.088 0 .042.008.07.024.086a22.192 22.192 0 0 1 1.047-.006c.2.004.405.006.617.006.113 0 .225-.008.334-.021.11-.016.222-.042.34-.079.118-.036.227-.08.328-.136a1.409 1.409 0 0 0 .53-.514c.065-.113.117-.246.155-.398a2.11 2.11 0 0 0 .057-.506c0-.245-.047-.477-.144-.7a1.781 1.781 0 0 0-.977-.96 1.81 1.81 0 0 0-.719-.147c-.125 0-.289.003-.49.006l-.39.004c-.105 0-.334-.003-.688-.01zm3.539 0c-.016.016-.023.045-.022.088.002.043.012.074.028.09.04.003.074.006.101.01a.265.265 0 0 1 .08.023l.063.026a.154.154 0 0 1 .053.046.472.472 0 0 1 .086.145c.019.042.032.075.043.102l.052.132 1.053 2.729c.033.083.073.125.121.125.05 0 .094-.042.129-.125l1.104-2.719.048-.125.053-.102a.36.36 0 0 1 .068-.101c.021-.02.048-.045.082-.072s.074-.049.118-.063a.896.896 0 0 1 .154-.031c.016-.016.023-.047.023-.09s-.007-.072-.023-.088l-.469.01c-.054 0-.247-.003-.58-.01-.016.016-.023.045-.023.088s.008.074.023.09c.078.005.141.015.19.031.05.016.087.034.11.057a.126.126 0 0 1 .044.093.357.357 0 0 1-.012.12c-.01.041-.026.093-.05.156l-.842 2.139h-.026l-.85-2.172c-.064-.158-.08-.265-.046-.319s.14-.088.318-.105c.016-.016.023-.047.023-.09s-.007-.072-.023-.088c-.333.007-.55.01-.646.01l-.555-.01zm13.869 0c-.016.016-.024.045-.024.088s.008.074.024.09c.092.005.16.01.203.02.043.008.085.029.121.062.037.031.06.078.07.14.013.061.018.15.018.262v1.531c0 .209.029.394.086.555.057.16.128.285.213.38a1.231 1.231 0 0 0 .63.344c.105.02.211.03.319.03a1.8 1.8 0 0 0 .559-.078c.16-.054.29-.127.39-.219.1-.092.182-.207.242-.345.063-.141.107-.29.13-.446.024-.156.034-.336.034-.537V9.721a.749.749 0 0 1 .012-.096l.016-.076c.003-.022.011-.04.025-.058l.032-.043c.006-.012.022-.023.044-.032a.452.452 0 0 1 .118-.035c.033-.007.056-.012.072-.013l.092-.01c.015-.016.023-.047.023-.09s-.008-.072-.023-.088l-.545.01c-.058 0-.263-.003-.617-.01-.016.016-.024.045-.024.088s.008.074.024.09l.11.01a.973.973 0 0 1 .093.013c.04.006.066.01.08.016.014.003.034.01.06.02.028.008.046.019.053.03l.035.044a.11.11 0 0 1 .03.058c.003.021.008.047.015.076.007.03.01.061.01.096.002.035.004.076.004.121v1.313c0 .097-.003.183-.008.262a1.957 1.957 0 0 1-.098.505.906.906 0 0 1-.113.213.685.685 0 0 1-.176.178.917.917 0 0 1-.252.111c-.099.028-.21.043-.336.043a.902.902 0 0 1-.632-.27.733.733 0 0 1-.155-.206.998.998 0 0 1-.082-.264 2.976 2.976 0 0 1-.031-.256 5.91 5.91 0 0 1-.006-.275V9.842c0-.076.002-.139.006-.187a.452.452 0 0 1 .031-.131.338.338 0 0 1 .051-.086c.02-.02.05-.035.094-.047a.696.696 0 0 1 .129-.023c.043-.004.103-.007.181-.01.016-.016.024-.047.024-.09s-.008-.072-.024-.088c-.347.007-.587.01-.72.01-.07 0-.283-.003-.637-.01zm-29.856 0c-.016.016-.024.045-.024.088s.008.074.024.09c.106.005.182.01.23.02a.26.26 0 0 1 .137.062c.042.033.068.08.078.14.012.061.018.15.018.262v2.137c0 .076-.003.141-.008.191a.468.468 0 0 1-.031.13.27.27 0 0 1-.053.083.23.23 0 0 1-.088.05.578.578 0 0 1-.119.023 3.638 3.638 0 0 1-.164.011c-.016.016-.023.045-.023.088 0 .042.007.07.023.086.347-.007.577-.01.691-.01.104 0 .334.003.688.01.015-.016.023-.044.023-.086 0-.043-.008-.072-.023-.088-.071-.003-.126-.008-.166-.011a.586.586 0 0 1-.117-.024.23.23 0 0 1-.088-.049.27.27 0 0 1-.053-.084.467.467 0 0 1-.031-.129 1.933 1.933 0 0 1-.008-.191V9.842c0-.113.005-.2.016-.261a.235.235 0 0 1 .078-.141.267.267 0 0 1 .134-.063c.05-.008.129-.014.235-.02.015-.015.023-.046.023-.089s-.008-.072-.023-.088c-.347.007-.577.01-.692.01-.104 0-.333-.003-.687-.01zm22.613 0c-.016.016-.024.045-.024.088s.008.074.024.09c.106.007.2.046.277.117.08.071.127.145.145.223v2.224c0 .082-.003.15-.008.203a.42.42 0 0 1-.031.141.334.334 0 0 1-.051.094.216.216 0 0 1-.09.054.611.611 0 0 1-.119.034 4.105 4.105 0 0 1-.164.02c-.016.015-.024.044-.024.087 0 .042.008.07.024.086.347-.007.545-.01.596-.01.04 0 .237.003.591.01.016-.016.024-.044.024-.086 0-.043-.008-.072-.024-.088a3.999 3.999 0 0 1-.166-.02.905.905 0 0 1-.117-.03.216.216 0 0 1-.09-.055.463.463 0 0 1-.086-.23 3.589 3.589 0 0 1-.003-.21V10.29c0-.101.002-.17.007-.206s.016-.054.036-.054c.027 0 .087.057.18.174l1.862 2.351c.063.085.133.127.213.127a.1.1 0 0 0 .088-.043.197.197 0 0 0 .035-.12v-2.62c0-.122.006-.215.016-.28a.28.28 0 0 1 .078-.156.286.286 0 0 1 .135-.072c.05-.012.128-.023.234-.033.016-.016.024-.047.024-.09s-.008-.072-.024-.088c-.347.007-.545.01-.595.01-.04 0-.238-.003-.592-.01-.016.016-.024.045-.024.088s.008.074.024.09c.062.007.11.012.142.017.033.004.07.012.11.022a.19.19 0 0 1 .086.035c.019.016.04.036.058.06.021.025.034.056.041.094a1.77 1.77 0 0 1 .026.313v1.781c0 .06-.003.1-.008.125-.004.024-.014.037-.031.037-.009 0-.017-.005-.028-.011a.276.276 0 0 1-.037-.04l-.045-.054-.066-.086-.078-.104-1.828-2.357zm12.297.154c.472 0 .709.248.709.747 0 .161-.021.299-.065.41a.525.525 0 0 1-.193.25.823.823 0 0 1-.28.12c-.1.023-.22.036-.359.036h-.253V9.674c0-.227.146-.34.44-.34zm-21.098.028c.222 0 .42.036.598.105.178.07.324.161.437.276.115.113.21.246.287.4s.131.313.162.475c.032.16.047.326.047.498 0 .21-.026.395-.076.554-.049.158-.114.286-.197.385s-.188.18-.31.242c-.122.061-.25.103-.382.127-.13.023-.274.036-.433.036-.169 0-.296-.013-.383-.036-.087-.024-.142-.053-.164-.088a.272.272 0 0 1-.035-.148V9.623c0-.173.15-.261.449-.261z" fill="#7de9f6" filter="url(#b)" transform="translate(252.53 -92.024) scale(38.471)"/><path d="M15.414 7.366c-.185.106-.332.16-.441.16l-1.817 4.289c-.096.226-.203.375-.32.445-.117.07-.277.112-.48.125-.024.024-.036.068-.036.133 0 .063.012.105.035.129.396-.01.635-.016.715-.016.287 0 .628.005 1.024.016.023-.024.035-.066.035-.129 0-.065-.012-.11-.035-.133a6.618 6.618 0 0 1-.23-.02 1.673 1.673 0 0 1-.114-.023 5.491 5.491 0 0 1-.094-.035.283.283 0 0 1-.078-.047.28.28 0 0 1-.047-.062.198.198 0 0 1-.02-.09.373.373 0 0 1 .028-.11l.441-1.16c.021-.054.05-.09.086-.11a.483.483 0 0 1 .196-.026h1.687l.465 1.355c.013.037.02.07.023.098s0 .053-.011.074a.187.187 0 0 1-.032.055.133.133 0 0 1-.058.035l-.074.027a.565.565 0 0 1-.094.012l-.106.012a3.189 3.189 0 0 1-.12.007l-.122.008c-.023.024-.035.068-.035.133 0 .062.012.105.035.129.396-.01.745-.016 1.047-.016.214 0 .518.005.914.016.024-.024.035-.067.035-.129 0-.065-.011-.11-.035-.133l-.156-.015a4.715 4.715 0 0 1-.129-.02.39.39 0 0 1-.14-.043l-.106-.074a.392.392 0 0 1-.11-.117 1.06 1.06 0 0 1-.078-.172zm-17.005 0c0 .054.004.142.004.181.315-.004.772.547.91.887.565 1.399 1.157 2.784 1.72 4.18 0 .003.178.007.181.003.372-.802.803-1.647 1.194-2.456l.985 2.456h.164c.625-1.508 1.567-3.826 1.868-4.561.13-.312.333-.502.671-.513l.004-.155-.003-.006-1.537-.014v.177c.13.002.464.066.568.36l-1.473 3.594c-.07-.176-.755-1.788-.832-1.993l.712-1.562a.881.881 0 0 1 .699-.403v-.173c-.145.004-.947.004-1.481.008-.004.042 0 .127-.004.173.418.01.572.112.465.374-.162.399-.512 1.144-.58 1.282-.21-.466-.35-.823-.578-1.332-.104-.233.12-.324.354-.332v-.167L.706 7.37v.177c.237.004.554.024.671.25.17.333.709 1.676.876 2.036-.21.427-.726 1.439-.906 1.816-.265-.614-1.248-3.038-1.511-3.67-.114-.267.29-.422.52-.436v-.177zm16.61.824h.05l.75 2.176h-1.413a.459.459 0 0 1-.18-.024c-.031-.015-.04-.043-.023-.082zm17.088.959c-.016 0-.023.005-.023.015-.02.22-.064.479-.133.774a.517.517 0 0 0 .183.025c.05-.205.134-.348.25-.433a.738.738 0 0 1 .453-.131h.26c.094 0 .16.044.196.133.038.088.056.22.056.396v2.05c0 .077-.002.142-.008.192a.413.413 0 0 1-.033.13.272.272 0 0 1-.056.083.242.242 0 0 1-.098.05.73.73 0 0 1-.135.023 4.606 4.606 0 0 1-.187.011c-.016.016-.024.045-.024.088 0 .042.008.07.024.086.347-.007.597-.01.748-.01.139 0 .384.003.738.01.016-.016.023-.044.023-.086 0-.043-.007-.072-.023-.088-.082-.003-.144-.008-.19-.011a.74.74 0 0 1-.132-.024.265.265 0 0 1-.1-.049.305.305 0 0 1-.055-.084.413.413 0 0 1-.033-.129 2.815 2.815 0 0 1-.006-.191V9.944c0-.183.018-.32.053-.41.036-.09.101-.135.193-.135h.118c.208 0 .372.041.494.125.121.083.204.224.248.424a.463.463 0 0 0 .18-.026 6.099 6.099 0 0 1-.069-.758c0-.001-.002-.004-.006-.007-.003-.006-.006-.008-.01-.008a14.41 14.41 0 0 1-1.195.04h-.459c-.467 0-.881-.012-1.242-.04zm8.316.006c-.038 0-.141.005-.308.017a5.49 5.49 0 0 1-.36.018c-.104 0-.333-.003-.687-.01-.016.016-.023.045-.023.088s.007.074.023.09c.106.005.184.01.232.02.05.006.095.027.135.062.042.033.068.08.078.14.012.061.02.15.02.262v2.137c0 .076-.003.141-.008.191a.467.467 0 0 1-.031.13.269.269 0 0 1-.053.083.23.23 0 0 1-.088.049.595.595 0 0 1-.12.023 3.642 3.642 0 0 1-.165.012c-.016.016-.023.045-.023.088 0 .042.007.07.023.086.347-.007.579-.01.693-.01.105 0 .334.003.688.01.016-.016.023-.044.023-.086 0-.043-.007-.072-.023-.088-.071-.003-.126-.008-.166-.012a.586.586 0 0 1-.117-.023.24.24 0 0 1-.09-.049.268.268 0 0 1-.05-.084.467.467 0 0 1-.032-.129 1.936 1.936 0 0 1-.008-.191v-.9c.144 0 .259.01.344.029a.497.497 0 0 1 .183.064c.037.026.07.063.098.11l.57.927c.197.316.43.473.704.473.1 0 .174-.01.222-.035a.141.141 0 0 0-.004-.129.399.399 0 0 1-.277-.102 1.425 1.425 0 0 1-.234-.308l-.674-1.121c.067-.023.138-.055.21-.098s.149-.1.227-.172a.865.865 0 0 0 .273-.64.882.882 0 0 0-.671-.875 2.563 2.563 0 0 0-.533-.047zm-12.98.015c-.081.014-.167.02-.26.02h-1.359l-.69-.01c-.015.016-.023.045-.023.088s.008.074.024.09c.085.003.148.009.191.015a.486.486 0 0 1 .13.034.158.158 0 0 1 .09.08c.016.034.03.08.038.136.01.056.016.129.016.22v2.136c0 .076-.003.141-.008.191a.39.39 0 0 1-.086.213.205.205 0 0 1-.088.049.577.577 0 0 1-.119.023 3.637 3.637 0 0 1-.164.012c-.016.016-.024.045-.024.088 0 .042.008.07.024.086l.695-.01h1.145c.17 0 .399.003.683.01.089-.31.154-.608.198-.89a.239.239 0 0 0-.188-.026c-.06.217-.146.387-.256.512a.555.555 0 0 1-.441.185h-.727a.177.177 0 0 1-.14-.06.262.262 0 0 1-.051-.168v-1.287h.484c.089 0 .164.005.223.017.06.01.108.024.14.04a.155.155 0 0 1 .075.077c.017.037.03.07.035.1.005.028.008.072.012.13.015.017.046.024.09.024s.072-.007.087-.023a22.38 22.38 0 0 1-.01-.469c0-.095.003-.249.01-.46-.015-.016-.044-.024-.088-.024s-.074.008-.09.023c-.003.057-.006.1-.01.13a.412.412 0 0 1-.023.093.134.134 0 0 1-.045.07.35.35 0 0 1-.082.043.535.535 0 0 1-.13.024c-.05.003-.116.003-.194.003h-.484V9.64c0-.068.018-.125.05-.168a.163.163 0 0 1 .141-.066h.563c.066 0 .123.005.174.015.05.01.094.029.132.055.04.026.074.052.1.08a1.299 1.299 0 0 1 .137.258c.015.042.036.099.058.172.063.01.12.002.176-.026a13.247 13.247 0 0 0-.064-.443 5.414 5.414 0 0 0-.055-.33c0-.01-.008-.016-.022-.016zm17.031 0c-.081.014-.167.02-.26.02h-1.359l-.69-.01c-.015.016-.023.045-.023.088s.008.074.024.09c.085.003.148.009.191.015a.486.486 0 0 1 .13.034.159.159 0 0 1 .089.08c.017.034.03.08.04.136.01.056.015.129.015.22v2.136c0 .076-.003.141-.008.191a.39.39 0 0 1-.086.213.205.205 0 0 1-.088.049.577.577 0 0 1-.119.023 3.641 3.641 0 0 1-.164.012c-.016.016-.024.045-.024.088 0 .042.008.07.024.086l.695-.01h1.145c.17 0 .399.003.683.01.089-.31.154-.608.198-.89a.239.239 0 0 0-.188-.026c-.06.217-.146.387-.256.512a.555.555 0 0 1-.441.185h-.727a.177.177 0 0 1-.14-.06.262.262 0 0 1-.051-.168v-1.287h.484c.089 0 .164.005.223.017.06.01.108.024.14.04a.155.155 0 0 1 .075.077c.017.037.03.07.035.1.005.028.008.072.012.13.015.017.046.024.09.024s.072-.007.087-.023a22.38 22.38 0 0 1-.01-.469c0-.095.003-.249.01-.46-.015-.016-.044-.024-.088-.024s-.074.008-.09.023c-.003.057-.006.1-.01.13a.412.412 0 0 1-.023.093.134.134 0 0 1-.045.07.35.35 0 0 1-.082.043.535.535 0 0 1-.13.024c-.05.003-.116.003-.194.003h-.484V9.64c0-.068.018-.125.05-.168a.163.163 0 0 1 .141-.066h.563c.066 0 .123.005.174.015.05.01.094.029.132.055.04.026.074.052.1.08a1.299 1.299 0 0 1 .137.258c.015.042.036.099.058.172.063.01.12.002.176-.026a13.274 13.274 0 0 0-.064-.443 5.437 5.437 0 0 0-.055-.33c0-.01-.008-.016-.022-.016zm-37.25.01c-.015.016-.023.045-.023.088s.008.074.023.09c.106.005.184.01.233.02.05.006.095.027.135.062.041.033.067.08.078.14.012.061.02.15.02.262v2.137c0 .076-.003.141-.008.191a.468.468 0 0 1-.032.13.27.27 0 0 1-.052.083.23.23 0 0 1-.088.05.596.596 0 0 1-.121.023 3.638 3.638 0 0 1-.164.011c-.016.016-.024.045-.024.088 0 .042.008.07.024.086.347-.007.578-.01.693-.01.104 0 .333.003.687.01.016-.016.024-.044.024-.086 0-.043-.008-.072-.024-.088-.07-.003-.126-.008-.166-.011a.587.587 0 0 1-.117-.024.24.24 0 0 1-.09-.049.268.268 0 0 1-.05-.084.467.467 0 0 1-.032-.129 1.933 1.933 0 0 1-.007-.191v-.996a.552.552 0 0 1 .44.203l.84 1.055c.053.066.095.131.13.199a.531.531 0 0 1 .06.17c.004.02.014.031.03.031.142-.007.236-.01.285-.01l.539.01c.015-.016.023-.044.023-.086 0-.043-.008-.072-.023-.088l-.055-.006-.072-.007-.072-.022a.664.664 0 0 1-.092-.039.67.67 0 0 1-.178-.152L8.83 10.854c-.045-.054-.068-.098-.068-.133 0-.016.002-.029.006-.04a.375.375 0 0 1 .048-.077c.03-.038.074-.086.131-.145l.783-.804a.867.867 0 0 1 .33-.23c.066-.027.181-.048.344-.067.016-.016.024-.047.024-.09s-.008-.072-.024-.088l-.508.01c-.067 0-.268-.003-.601-.01-.016.016-.024.045-.024.088s.008.074.024.09l.084.008c.017.002.04.004.068.011.03.005.048.013.059.022a.116.116 0 0 1 .035.031c.01.012.013.028.008.047a.272.272 0 0 1-.035.064.48.48 0 0 1-.07.092l-.88.938a.648.648 0 0 1-.422.209v-.938c0-.113.006-.2.016-.262a.235.235 0 0 1 .078-.14.267.267 0 0 1 .135-.063c.05-.008.128-.014.234-.02.016-.015.024-.046.024-.09s-.008-.071-.024-.087c-.347.007-.578.01-.693.01-.104 0-.333-.003-.687-.01zm3.594 0c-.015.016-.023.045-.023.088s.008.074.023.09c.106.005.184.01.233.02.05.006.095.027.135.062.041.033.067.08.078.14.012.061.02.15.02.262v2.137c0 .076-.003.141-.009.191a.468.468 0 0 1-.03.13.27.27 0 0 1-.054.083.23.23 0 0 1-.088.05.596.596 0 0 1-.12.023 3.642 3.642 0 0 1-.165.011c-.015.016-.023.045-.023.088 0 .042.008.07.023.086.348-.007.58-.01.694-.01.104 0 .333.003.687.01.016-.016.024-.044.024-.086 0-.043-.008-.072-.024-.088-.071-.003-.126-.008-.166-.011a.586.586 0 0 1-.117-.024.24.24 0 0 1-.09-.049.268.268 0 0 1-.05-.084.467.467 0 0 1-.032-.129 1.936 1.936 0 0 1-.008-.191V9.842c0-.113.006-.2.016-.261a.235.235 0 0 1 .078-.141.267.267 0 0 1 .135-.063c.05-.008.128-.014.234-.02.016-.015.024-.046.024-.089s-.008-.072-.024-.088c-.347.007-.579.01-.693.01-.104 0-.334-.003-.688-.01zm7.147 0c-.016.016-.024.045-.024.088s.008.074.024.09c.106.005.184.01.232.02.05.006.095.027.135.062.042.033.068.08.078.14.012.061.018.15.018.262v2.137c0 .076-.003.141-.008.191a.467.467 0 0 1-.031.13.268.268 0 0 1-.051.083.24.24 0 0 1-.09.05.578.578 0 0 1-.12.023 3.64 3.64 0 0 1-.163.011c-.016.016-.024.045-.024.088 0 .042.008.07.024.086a22.192 22.192 0 0 1 1.047-.006c.2.004.405.006.617.006.113 0 .225-.008.334-.021.11-.016.222-.042.34-.079.118-.036.227-.08.328-.136a1.409 1.409 0 0 0 .53-.514c.065-.113.117-.246.155-.398a2.11 2.11 0 0 0 .057-.506c0-.245-.047-.477-.144-.7a1.781 1.781 0 0 0-.977-.96 1.81 1.81 0 0 0-.719-.147c-.125 0-.289.003-.49.006l-.39.004c-.105 0-.334-.003-.688-.01zm3.539 0c-.016.016-.023.045-.022.088.002.043.012.074.028.09.04.003.074.006.101.01a.265.265 0 0 1 .08.023l.063.026a.154.154 0 0 1 .053.046.472.472 0 0 1 .086.145c.019.042.032.075.043.102l.052.132 1.053 2.729c.033.083.073.125.121.125.05 0 .094-.042.129-.125l1.104-2.719.048-.125.053-.102a.36.36 0 0 1 .068-.101c.021-.02.048-.045.082-.072s.074-.049.118-.063a.896.896 0 0 1 .154-.031c.016-.016.023-.047.023-.09s-.007-.072-.023-.088l-.469.01c-.054 0-.247-.003-.58-.01-.016.016-.023.045-.023.088s.008.074.023.09c.078.005.141.015.19.031.05.016.087.034.11.057a.126.126 0 0 1 .044.093.357.357 0 0 1-.012.12c-.01.041-.026.093-.05.156l-.842 2.139h-.026l-.85-2.172c-.064-.158-.08-.265-.046-.319s.14-.088.318-.105c.016-.016.023-.047.023-.09s-.007-.072-.023-.088c-.333.007-.55.01-.646.01l-.555-.01zm13.869 0c-.016.016-.024.045-.024.088s.008.074.024.09c.092.005.16.01.203.02.043.008.085.029.121.062.037.031.06.078.07.14.013.061.018.15.018.262v1.531c0 .209.029.394.086.555.057.16.128.285.213.38a1.231 1.231 0 0 0 .63.344c.105.02.211.03.319.03a1.8 1.8 0 0 0 .559-.078c.16-.054.29-.127.39-.219.1-.092.182-.207.242-.345.063-.141.107-.29.13-.446.024-.156.034-.336.034-.537V9.721a.749.749 0 0 1 .012-.096l.016-.076c.003-.022.011-.04.025-.058l.032-.043c.006-.012.022-.023.044-.032a.452.452 0 0 1 .118-.035c.033-.007.056-.012.072-.013l.092-.01c.015-.016.023-.047.023-.09s-.008-.072-.023-.088l-.545.01c-.058 0-.263-.003-.617-.01-.016.016-.024.045-.024.088s.008.074.024.09l.11.01a.973.973 0 0 1 .093.013c.04.006.066.01.08.016.014.003.034.01.06.02.028.008.046.019.053.03l.035.044a.11.11 0 0 1 .03.058c.003.021.008.047.015.076.007.03.01.061.01.096.002.035.004.076.004.121v1.313c0 .097-.003.183-.008.262a1.957 1.957 0 0 1-.098.505.906.906 0 0 1-.113.213.685.685 0 0 1-.176.178.917.917 0 0 1-.252.111c-.099.028-.21.043-.336.043a.902.902 0 0 1-.632-.27.733.733 0 0 1-.155-.206.998.998 0 0 1-.082-.264 2.976 2.976 0 0 1-.031-.256 5.91 5.91 0 0 1-.006-.275V9.842c0-.076.002-.139.006-.187a.452.452 0 0 1 .031-.131.338.338 0 0 1 .051-.086c.02-.02.05-.035.094-.047a.696.696 0 0 1 .129-.023c.043-.004.103-.007.181-.01.016-.016.024-.047.024-.09s-.008-.072-.024-.088c-.347.007-.587.01-.72.01-.07 0-.283-.003-.637-.01zm-29.856 0c-.016.016-.024.045-.024.088s.008.074.024.09c.106.005.182.01.23.02a.26.26 0 0 1 .137.062c.042.033.068.08.078.14.012.061.018.15.018.262v2.137c0 .076-.003.141-.008.191a.468.468 0 0 1-.031.13.27.27 0 0 1-.053.083.23.23 0 0 1-.088.05.578.578 0 0 1-.119.023 3.638 3.638 0 0 1-.164.011c-.016.016-.023.045-.023.088 0 .042.007.07.023.086.347-.007.577-.01.691-.01.104 0 .334.003.688.01.015-.016.023-.044.023-.086 0-.043-.008-.072-.023-.088-.071-.003-.126-.008-.166-.011a.586.586 0 0 1-.117-.024.23.23 0 0 1-.088-.049.27.27 0 0 1-.053-.084.467.467 0 0 1-.031-.129 1.933 1.933 0 0 1-.008-.191V9.842c0-.113.005-.2.016-.261a.235.235 0 0 1 .078-.141.267.267 0 0 1 .134-.063c.05-.008.129-.014.235-.02.015-.015.023-.046.023-.089s-.008-.072-.023-.088c-.347.007-.577.01-.692.01-.104 0-.333-.003-.687-.01zm22.613 0c-.016.016-.024.045-.024.088s.008.074.024.09c.106.007.2.046.277.117.08.071.127.145.145.223v2.224c0 .082-.003.15-.008.203a.42.42 0 0 1-.031.141.334.334 0 0 1-.051.094.216.216 0 0 1-.09.054.611.611 0 0 1-.119.034 4.105 4.105 0 0 1-.164.02c-.016.015-.024.044-.024.087 0 .042.008.07.024.086.347-.007.545-.01.596-.01.04 0 .237.003.591.01.016-.016.024-.044.024-.086 0-.043-.008-.072-.024-.088a3.999 3.999 0 0 1-.166-.02.905.905 0 0 1-.117-.03.216.216 0 0 1-.09-.055.463.463 0 0 1-.086-.23 3.589 3.589 0 0 1-.003-.21V10.29c0-.101.002-.17.007-.206s.016-.054.036-.054c.027 0 .087.057.18.174l1.862 2.351c.063.085.133.127.213.127a.1.1 0 0 0 .088-.043.197.197 0 0 0 .035-.12v-2.62c0-.122.006-.215.016-.28a.28.28 0 0 1 .078-.156.286.286 0 0 1 .135-.072c.05-.012.128-.023.234-.033.016-.016.024-.047.024-.09s-.008-.072-.024-.088c-.347.007-.545.01-.595.01-.04 0-.238-.003-.592-.01-.016.016-.024.045-.024.088s.008.074.024.09c.062.007.11.012.142.017.033.004.07.012.11.022a.19.19 0 0 1 .086.035c.019.016.04.036.058.06.021.025.034.056.041.094a1.77 1.77 0 0 1 .026.313v1.781c0 .06-.003.1-.008.125-.004.024-.014.037-.031.037-.009 0-.017-.005-.028-.011a.276.276 0 0 1-.037-.04l-.045-.054-.066-.086-.078-.104-1.828-2.357zm12.297.154c.472 0 .709.248.709.747 0 .161-.021.299-.065.41a.525.525 0 0 1-.193.25.823.823 0 0 1-.28.12c-.1.023-.22.036-.359.036h-.253V9.674c0-.227.146-.34.44-.34zm-21.098.028c.222 0 .42.036.598.105.178.07.324.161.437.276.115.113.21.246.287.4s.131.313.162.475c.032.16.047.326.047.498 0 .21-.026.395-.076.554-.049.158-.114.286-.197.385s-.188.18-.31.242c-.122.061-.25.103-.382.127-.13.023-.274.036-.433.036-.169 0-.296-.013-.383-.036-.087-.024-.142-.053-.164-.088a.272.272 0 0 1-.035-.148V9.623c0-.173.15-.261.449-.261z" fill="#87efff" filter="url(#c)" transform="translate(252.53 -92.024) scale(38.471)"/><path d="M846.522 191.338c-7.113 4.108-12.772 6.162-16.98 6.162l-69.879 165.006c-3.706 8.716-7.816 14.428-12.324 17.133s-10.668 4.308-18.482 4.808c-.902.902-1.354 2.605-1.354 5.11 0 2.404.452 4.057 1.354 4.959 15.228-.401 24.394-.602 27.5-.602 11.02 0 24.144.2 39.37.602.903-.902 1.352-2.555 1.352-4.96 0-2.504-.45-4.207-1.351-5.109-1.703-.1-3.205-.2-4.508-.3-1.202-.1-2.657-.25-4.36-.45-1.703-.301-3.155-.601-4.357-.902-1.103-.4-2.306-.852-3.608-1.353-1.202-.5-2.204-1.102-3.006-1.803a10.78 10.78 0 0 1-1.802-2.404c-.501-1.002-.75-2.155-.75-3.457.1-1.303.45-2.705 1.05-4.207l16.983-44.634c.801-2.104 1.902-3.506 3.304-4.208 1.403-.7 3.908-1.053 7.514-1.053h64.92l17.883 52.148c.501 1.403.802 2.654.902 3.756s-.05 2.054-.45 2.855c-.3.802-.701 1.502-1.202 2.104-.4.5-1.152.952-2.254 1.353-1.102.4-2.054.75-2.855 1.05-.802.2-2.005.35-3.608.452l-4.056.451c-1.102.1-2.655.2-4.658.3-1.904.1-3.459.2-4.66.3-.902.902-1.352 2.605-1.352 5.11 0 2.404.45 4.059 1.352 4.96 15.228-.4 28.652-.601 40.275-.601 8.215 0 19.938.2 35.166.602.902-.902 1.351-2.557 1.351-4.961 0-2.505-.45-4.208-1.351-5.11-3.106-.3-5.11-.499-6.012-.6-.801-.1-2.454-.35-4.959-.751-2.504-.401-4.308-.953-5.41-1.655l-4.057-2.853a15.09 15.09 0 0 1-4.209-4.51c-1.102-1.903-2.104-4.106-3.006-6.61zm-654.2.031c0 2.055.146 5.432.146 6.95 12.125-.147 29.714 21.041 34.99 34.107 21.751 53.828 44.518 107.119 66.228 160.801 0 .154 6.8.308 6.943.154 14.3-30.877 30.868-63.37 45.911-94.493l37.906 94.493h6.295c24.068-58.038 60.307-147.198 71.876-175.482 4.998-11.989 12.819-19.33 25.824-19.72l.142-5.97-.1-.245-59.148-.54v6.803c4.998.097 17.865 2.544 21.845 13.848l-56.648 138.292c-2.73-6.802-29.066-68.802-32.028-76.68l27.397-60.092c5.693-9.249 16.477-15.122 26.89-15.512v-6.654c-5.551.138-36.423.138-56.972.292-.142 1.615.002 4.895-.14 6.656 16.06.392 21.982 4.307 17.863 14.387-6.202 15.367-19.67 44.042-22.262 49.328-8.099-17.911-13.514-31.663-22.261-51.236-4.027-8.955 4.628-12.48 13.607-12.772v-6.41l-65.95-.154v6.801c9.117.147 21.336.93 25.825 9.64 6.572 12.773 27.26 64.447 33.694 78.297-8.1 16.442-27.91 55.344-34.852 69.879C295.16 332.5 257.35 239.23 247.213 214.91c-4.397-10.228 11.153-16.199 20.04-16.737v-6.804zm639.004 31.678h1.953l28.854 83.705h-54.402c-3.406 0-5.71-.3-6.912-.9-1.202-.601-1.503-1.653-.902-3.156zm657.393 36.893c-.602 0-.903.2-.903.601-.734 8.483-2.437 18.402-5.109 29.756 1.67.668 4.06.976 7.065.976 1.937-7.88 5.142-13.407 9.617-16.68 4.475-3.339 10.285-5.034 17.431-5.034h9.994c3.607 0 6.111 1.703 7.514 5.11 1.47 3.405 2.178 8.506 2.178 15.251v78.896c0 2.94-.1 5.429-.3 7.366-.2 1.87-.61 3.489-1.278 4.959-.667 1.402-1.378 2.496-2.18 3.23-.734.735-2.02 1.344-3.757 1.879a28.077 28.077 0 0 1-5.184.902c-1.67.135-4.073.32-7.213.45-.601.6-.902 1.712-.902 3.382 0 1.603.3 2.703.902 3.305 13.358-.266 22.967-.377 28.777-.377 5.344 0 14.778.107 28.403.377.601-.602.902-1.702.902-3.305 0-1.67-.3-2.781-.902-3.383-3.14-.134-5.55-.319-7.287-.449a28.44 28.44 0 0 1-5.11-.902c-1.736-.535-3.032-1.144-3.834-1.88-.735-.733-1.435-1.827-2.103-3.23-.669-1.469-1.078-3.088-1.278-4.958-.134-1.937-.227-4.427-.227-7.366V290.52c0-7.013.694-12.306 2.03-15.78 1.402-3.472 3.898-5.185 7.437-5.185h4.51c8.015 0 14.334 1.605 19.01 4.81 4.675 3.207 7.873 8.625 9.543 16.306 3.139 0 5.442-.308 6.912-.977-1.537-10.352-2.43-20.07-2.63-29.154 0-.065-.092-.165-.226-.3-.135-.2-.243-.3-.377-.3-12.49 1.069-27.818 1.578-45.985 1.578h-17.656c-17.966 0-33.896-.51-47.789-1.578zm319.944.227-.002.001c-1.47 0-5.462.208-11.873.676-6.412.468-11.02.676-13.824.676-4.008 0-12.824-.107-26.45-.377-.6.602-.902 1.712-.902 3.381s.3 2.856.902 3.457c4.075.2 7.072.418 8.942.752 1.937.266 3.647 1.069 5.183 2.405 1.604 1.268 2.605 3.072 3.006 5.41.468 2.337.752 5.727.752 10.068v82.201c0 2.939-.1 5.426-.3 7.363-.2 1.87-.6 3.49-1.201 4.96-.601 1.402-1.295 2.495-2.03 3.23-.734.735-1.844 1.344-3.38 1.879a22.896 22.896 0 0 1-4.658.902c-1.47.134-3.574.32-6.313.451-.601.601-.9 1.711-.9 3.38 0 1.604.3 2.706.9 3.308 13.358-.266 22.268-.377 26.676-.377 4.008 0 12.822.107 26.447.377.602-.602.902-1.704.902-3.307 0-1.67-.3-2.78-.902-3.38-2.738-.136-4.85-.32-6.386-.452a22.551 22.551 0 0 1-4.508-.902c-1.536-.535-2.723-1.144-3.457-1.88-.735-.734-1.353-1.827-1.954-3.23-.6-1.469-1-3.088-1.2-4.959-.2-1.937-.3-4.424-.3-7.363v-34.64c5.543 0 9.951.393 13.224 1.128 3.34.667 5.66 1.476 7.063 2.478 1.402 1.002 2.689 2.406 3.757 4.209l21.94 35.69c7.547 12.155 16.565 18.183 27.05 18.183 3.874 0 6.696-.416 8.567-1.351.735-1.47.717-3.156-.15-4.96-4.208 0-7.798-1.302-10.67-3.907-2.805-2.605-5.811-6.528-9.018-11.871l-25.923-43.13c2.605-.868 5.31-2.088 8.115-3.758s5.71-3.874 8.715-6.613c3.072-2.739 5.577-6.245 7.514-10.52 2.004-4.341 3.006-9.048 3.006-14.125 0-10.218-3.615-18.817-10.895-25.697-4.408-4.14-9.41-6.762-14.953-7.965-5.544-1.202-12.364-1.803-20.512-1.803zm-499.354.601.002.002c-3.14.535-6.452.75-9.992.75h-52.297l-26.524-.377c-.601.601-.902 1.711-.902 3.38s.3 2.857.902 3.458c3.273.134 5.694.334 7.363.601 1.67.2 3.358.61 4.961 1.278 1.67.668 2.787 1.677 3.455 3.08.668 1.335 1.168 3.122 1.502 5.26.401 2.137.602 4.942.602 8.415v82.201c0 2.94-.1 5.427-.3 7.364-.2 1.937-.61 3.556-1.277 4.959-.601 1.402-1.295 2.496-2.03 3.23-.668.735-1.777 1.345-3.38 1.879a22.216 22.216 0 0 1-4.585.902c-1.469.135-3.572.32-6.31.451-.602.602-.903 1.712-.903 3.381 0 1.603.3 2.705.902 3.307 6.68-.135 15.595-.243 26.749-.377h44.03c6.545 0 15.345.107 26.298.377 3.407-11.955 5.919-23.378 7.588-34.264-2.337-1.336-4.742-1.644-7.213-.976-2.337 8.348-5.636 14.876-9.843 19.685-4.141 4.742-9.767 7.139-16.98 7.139h-27.952c-2.27 0-4.074-.794-5.41-2.33-1.27-1.603-1.953-3.723-1.953-6.461v-49.516h18.632c3.407 0 6.296.208 8.567.676 2.337.4 4.141.9 5.41 1.502 1.27.601 2.187 1.603 2.855 3.005.668 1.403 1.154 2.697 1.354 3.832.2 1.07.319 2.765.449 5.036.601.6 1.787.902 3.457.902s2.78-.3 3.38-.902c-.265-9.618-.376-15.63-.376-18.034 0-3.673.108-9.584.377-17.732-.601-.601-1.711-.903-3.381-.903s-2.856.3-3.457.903c-.135 2.204-.242 3.823-.377 4.959-.135 1.135-.432 2.336-.9 3.605-.401 1.27-.994 2.171-1.73 2.705-.734.535-1.753 1.12-3.155 1.654-1.403.468-3.098.767-5.035.9-1.937.135-4.432.15-7.438.15h-18.635V278.8c0-2.605.684-4.791 1.954-6.46 1.268-1.737 3.072-2.555 5.41-2.555h21.64c2.538 0 4.75.2 6.688.6 1.937.4 3.64 1.103 5.11 2.105 1.535 1.002 2.83 2.011 3.831 3.08 1.002 1.069 1.92 2.58 2.856 4.584 1.001 1.937 1.803 3.731 2.404 5.334a118.036 118.036 0 0 1 2.254 6.613c2.405.401 4.625.092 6.762-.976-.468-3.807-1.277-9.51-2.479-17.057-1.135-7.547-1.838-11.764-2.105-12.699 0-.4-.292-.602-.826-.602zm655.2 0 .002.002c-3.14.535-6.454.75-9.994.75h-52.298l-26.523-.377c-.602.601-.903 1.711-.903 3.38s.3 2.857.903 3.458c3.272.134 5.693.334 7.363.601 1.67.2 3.356.61 4.959 1.278 1.67.668 2.79 1.677 3.457 3.08.668 1.335 1.168 3.122 1.502 5.26.4 2.137.602 4.942.602 8.415v82.201c0 2.94-.1 5.427-.3 7.364-.2 1.937-.61 3.556-1.278 4.959-.6 1.402-1.292 2.496-2.027 3.23-.668.735-1.78 1.345-3.383 1.879a22.195 22.195 0 0 1-4.582.902c-1.469.135-3.574.32-6.312.451-.601.602-.903 1.712-.903 3.381 0 1.603.3 2.705.903 3.307 6.679-.135 15.596-.243 26.75-.377h44.03c6.545 0 15.345.107 26.299.377 3.406-11.955 5.92-23.378 7.59-34.264-2.338-1.336-4.744-1.644-7.215-.976-2.338 8.348-5.634 14.876-9.842 19.685-4.14 4.742-9.769 7.139-16.982 7.139h-27.951c-2.271 0-4.075-.794-5.41-2.33-1.27-1.603-1.954-3.723-1.954-6.461v-49.516h18.635c3.406 0 6.295.208 8.566.676 2.338.4 4.14.9 5.409 1.502 1.269.601 2.187 1.603 2.855 3.005.668 1.403 1.153 2.697 1.353 3.832.2 1.07.32 2.765.452 5.036.6.6 1.785.902 3.455.902s2.781-.3 3.382-.902c-.265-9.618-.377-15.63-.377-18.034 0-3.673.108-9.584.377-17.732-.6-.601-1.713-.903-3.382-.903s-2.854.3-3.455.903c-.135 2.204-.243 3.823-.377 4.959-.135 1.135-.435 2.336-.903 3.605-.4 1.27-.993 2.171-1.728 2.705-.734.535-1.754 1.12-3.156 1.654-1.403.468-3.096.767-5.033.9-1.937.135-4.435.15-7.44.15h-18.634V278.8c0-2.605.685-4.791 1.955-6.46 1.269-1.737 3.07-2.555 5.408-2.555h21.64c2.539 0 4.751.2 6.688.6 1.937.4 3.64 1.103 5.11 2.105 1.535 1.002 2.83 2.011 3.831 3.08 1.002 1.069 1.92 2.58 2.856 4.584 1.002 1.937 1.803 3.731 2.404 5.334a118.036 118.036 0 0 1 2.254 6.613c2.405.401 4.625.092 6.762-.976-.468-3.807-1.277-9.51-2.478-17.057-1.136-7.547-1.837-11.764-2.104-12.699 0-.4-.292-.602-.826-.602zm-1433.045.373v.006c-.601.602-.9 1.711-.9 3.381s.299 2.854.9 3.455c4.074.2 7.071.418 8.941.752 1.937.266 3.65 1.069 5.186 2.405 1.603 1.268 2.605 3.072 3.006 5.41.467 2.337.752 5.727.752 10.068v82.201c0 2.939-.101 5.426-.301 7.363-.2 1.87-.602 3.49-1.203 4.96-.601 1.402-1.295 2.497-2.03 3.232-.734.734-1.844 1.342-3.38 1.877a22.925 22.925 0 0 1-4.658.902c-1.47.134-3.573.32-6.31.451-.602.601-.903 1.711-.903 3.38 0 1.604.301 2.706.902 3.308 13.358-.266 22.266-.377 26.674-.377 4.008 0 12.824.107 26.45.377.6-.602.9-1.704.9-3.307 0-1.67-.3-2.78-.9-3.38-2.74-.136-4.85-.32-6.387-.452a22.557 22.557 0 0 1-4.51-.902c-1.536-.535-2.72-1.143-3.455-1.877-.735-.735-1.354-1.83-1.955-3.233-.601-1.469-1.001-3.088-1.201-4.959-.2-1.937-.301-4.424-.301-7.363V330.5c7.347.2 12.973 2.806 16.98 7.814l32.31 40.576c2.004 2.537 3.624 5.059 4.96 7.664 1.335 2.605 2.13 4.8 2.33 6.537.135.801.526 1.203 1.127 1.203 5.476-.266 9.1-.377 10.97-.377 1.002 0 7.915.107 20.739.377.601-.602.9-1.704.9-3.307 0-1.67-.3-2.78-.9-3.38-.135 0-.837-.093-2.106-.228s-2.178-.234-2.779-.3c-.534-.134-1.443-.425-2.78-.826-1.335-.467-2.53-.968-3.532-1.502a26.673 26.673 0 0 1-3.305-2.254 25.801 25.801 0 0 1-3.531-3.607l-44.934-53.352c-1.737-2.07-2.63-3.773-2.63-5.109 0-.601.092-1.11.225-1.578.2-.534.81-1.527 1.88-2.93 1.135-1.469 2.83-3.29 5.034-5.56l30.129-30.959c3.94-4.208 8.157-7.197 12.7-8.867 2.537-1.002 6.946-1.82 13.224-2.554.601-.602.903-1.788.903-3.457s-.3-2.78-.903-3.381a4458.15 4458.15 0 0 1-19.537.377c-2.605 0-10.32-.108-23.143-.377-.601.601-.9 1.711-.9 3.38s.3 2.857.9 3.458c1.47.134 2.565.234 3.233.3s1.56.184 2.628.45c1.136.2 1.854.494 2.254.827.468.266.953.667 1.354 1.201.4.468.501 1.069.3 1.803-.2.668-.686 1.479-1.354 2.48-.6 1.07-1.503 2.263-2.704 3.532L583.01 314.64c-4.608 4.809-10.019 7.505-16.23 8.039v-36.067c0-4.341.2-7.73.601-10.068.468-2.338 1.47-4.142 3.006-5.41 1.603-1.336 3.315-2.138 5.185-2.405 1.937-.335 4.942-.55 9.016-.75.601-.601.902-1.787.902-3.457s-.3-2.78-.902-3.38c-13.358.265-22.266.376-26.674.376-4.007 0-12.824-.107-26.449-.377zm138.257.002v.004c-.601.602-.902 1.711-.902 3.381s.3 2.854.902 3.455c4.074.2 7.071.418 8.941.752 1.938.266 3.65 1.069 5.186 2.405 1.603 1.268 2.605 3.072 3.006 5.41.467 2.337.75 5.727.75 10.068v82.201c0 2.939-.1 5.426-.3 7.363-.2 1.87-.6 3.49-1.201 4.96-.602 1.402-1.295 2.497-2.03 3.232-.734.734-1.844 1.342-3.38 1.877a22.927 22.927 0 0 1-4.658.902c-1.47.134-3.575.32-6.313.451-.601.601-.9 1.711-.9 3.38 0 1.604.3 2.706.9 3.308 13.358-.266 22.268-.377 26.676-.377 4.008 0 12.822.107 26.447.377.602-.602.903-1.704.903-3.307 0-1.67-.3-2.78-.903-3.38-2.738-.136-4.85-.32-6.386-.452a22.542 22.542 0 0 1-4.508-.902c-1.536-.537-2.722-1.146-3.457-1.881-.735-.735-1.352-1.828-1.953-3.23-.601-1.47-1.003-3.089-1.203-4.96-.2-1.936-.3-4.424-.3-7.363v-82.2c0-4.342.2-7.731.6-10.069.467-2.338 1.47-4.141 3.005-5.41 1.603-1.336 3.316-2.137 5.186-2.405 1.937-.334 4.941-.552 9.016-.752.6-.601.902-1.787.902-3.457s-.3-2.78-.902-3.38c-13.358.265-22.266.376-26.674.376-4.008 0-12.824-.107-26.45-.377zm274.937.002-.002.002c-.601.602-.903 1.711-.903 3.381s.3 2.854.903 3.455c4.074.2 7.071.418 8.941.752 1.937.266 3.648 1.069 5.184 2.405 1.603 1.268 2.605 3.072 3.006 5.41.467 2.337.676 5.727.676 10.068v82.201c0 2.939-.1 5.426-.3 7.363-.2 1.87-.602 3.49-1.203 4.96-.601 1.402-1.219 2.497-1.954 3.232-.734.734-1.918 1.342-3.455 1.877a22.238 22.238 0 0 1-4.583.902c-1.47.134-3.574.32-6.313.451-.601.601-.9 1.711-.9 3.38 0 1.604.3 2.706.9 3.308 13.358-.266 22.266-.377 26.674-.377 1.403 0 5.92.017 13.602.15 7.68.134 15.595.227 23.744.227 4.341 0 8.64-.293 12.848-.827 4.207-.601 8.532-1.603 13.074-3.006 4.542-1.402 8.749-3.122 12.623-5.26 3.94-2.137 7.732-4.926 11.272-8.265a54.326 54.326 0 0 0 9.092-11.496c2.537-4.341 4.542-9.45 6.011-15.328 1.47-5.944 2.178-12.448 2.178-19.46 0-9.418-1.818-18.352-5.558-26.901-3.674-8.55-8.685-15.954-15.03-22.166-6.278-6.211-13.791-11.13-22.54-14.803-8.75-3.74-17.966-5.635-27.65-5.635-4.81 0-11.112.093-18.86.227s-12.758.15-15.029.15c-4.008 0-12.822-.107-26.447-.377zm136.149 0 .002.002c-.601.602-.894 1.711-.827 3.381.066 1.67.452 2.854 1.053 3.455 1.537.135 2.838.243 3.907.377 1.068.135 2.078.435 3.08.903l2.404.976c.601.266 1.295.868 2.03 1.803.8.935 1.318 1.72 1.652 2.254.335.534.92 1.637 1.654 3.306.734 1.604 1.252 2.907 1.652 3.909.135.334.828 2.037 2.03 5.109l40.498 104.968c1.269 3.206 2.788 4.81 4.658 4.81 1.937 0 3.623-1.604 4.96-4.81l42.452-104.595c.935-2.404 1.545-4.007 1.879-4.808.4-.802 1.094-2.105 2.03-3.909.934-1.87 1.827-3.171 2.628-3.906.802-.801 1.82-1.713 3.156-2.781s2.838-1.87 4.508-2.405c1.737-.534 3.731-.933 5.935-1.2.602-.602.903-1.788.903-3.458s-.3-2.78-.903-3.38c-10.953.265-16.964.376-18.033.376-2.07 0-9.493-.107-22.316-.377-.601.602-.9 1.712-.9 3.381s.3 2.856.9 3.457c3.005.2 5.419.6 7.289 1.201 1.937.602 3.348 1.312 4.283 2.18 1.002.868 1.586 2.07 1.653 3.605.134 1.47-.05 2.981-.45 4.584-.4 1.603-1.02 3.608-1.955 6.012l-32.385 82.278h-.976l-32.685-83.555c-2.471-6.078-3.072-10.178-1.803-12.248s5.368-3.389 12.248-4.057c.601-.601.9-1.787.9-3.457s-.3-2.78-.9-3.38c-12.824.265-21.131.376-24.871.376-1.403 0-8.517-.107-21.34-.377zm533.554 0-.002.002c-.601.602-.902 1.711-.902 3.381 0 1.67.3 2.854.902 3.455 3.54.2 6.145.418 7.814.752 1.67.335 3.256 1.136 4.658 2.405 1.403 1.202 2.305 3.006 2.705 5.41.468 2.337.676 5.727.676 10.068v58.907c0 8.015 1.103 15.128 3.307 21.34 2.204 6.144 4.917 10.971 8.19 14.578 3.339 3.54 7.237 6.444 11.646 8.715 4.475 2.27 8.682 3.775 12.623 4.51a62.436 62.436 0 0 0 12.248 1.2c8.215 0 15.346-1.001 21.49-3.005 6.145-2.07 11.154-4.876 15.028-8.416 3.874-3.54 6.979-7.956 9.316-13.299a64.845 64.845 0 0 0 4.961-17.13c.935-6.012 1.352-12.917 1.352-20.665V281.96c.065-1.336.25-2.546.451-3.682.27-1.135.468-2.13.602-2.931.134-.868.442-1.586.976-2.254s.936-1.252 1.203-1.652c.266-.468.859-.87 1.727-1.203a17.39 17.39 0 0 1 1.879-.75c.467-.2 1.361-.401 2.63-.602 1.27-.265 2.178-.459 2.78-.525.668-.066 1.861-.177 3.53-.377.602-.602.903-1.788.903-3.457s-.3-2.78-.902-3.381c-13.358.265-20.362.377-20.963.377-2.204 0-10.12-.108-23.745-.377-.6.601-.902 1.71-.902 3.38s.3 2.857.902 3.458c2.071.2 3.482.307 4.284.377.868.065 2.061.257 3.531.525 1.536.2 2.548.402 3.082.602.534.134 1.326.35 2.328.75 1.069.334 1.763.735 2.03 1.203.334.4.75.984 1.351 1.652.601.668.995 1.386 1.129 2.254.134.801.335 1.796.6 2.931.265 1.136.377 2.346.377 3.682.065 1.336.15 2.922.15 4.658v50.493c0 3.74-.1 7.065-.3 10.07-.135 2.94-.536 6.245-1.203 9.918-.601 3.607-1.487 6.805-2.555 9.543-1.002 2.739-2.42 5.451-4.358 8.19a26.346 26.346 0 0 1-6.763 6.838c-2.605 1.736-5.818 3.147-9.691 4.283-3.807 1.069-8.115 1.652-12.924 1.652-8.95 0-17.066-3.49-24.346-10.369a28.214 28.214 0 0 1-5.936-7.964c-1.469-3.006-2.488-6.403-3.156-10.143-.601-3.74-1.003-7.039-1.203-9.844a227.369 227.369 0 0 1-.227-10.596v-52.07c0-2.939.093-5.343.227-7.213.2-1.937.602-3.632 1.203-5.035.668-1.47 1.286-2.57 1.953-3.305.735-.734 1.938-1.335 3.608-1.803a26.765 26.765 0 0 1 4.959-.902c1.67-.135 3.983-.242 6.988-.377.601-.601.9-1.787.9-3.457s-.3-2.78-.9-3.38c-13.358.265-22.584.376-27.726.376-2.672 0-10.871-.108-24.496-.377zm-1148.59.002c-.601.602-.9 1.711-.9 3.381s.299 2.854.9 3.455c4.074.2 6.997.418 8.867.752 1.937.266 3.724 1.069 5.26 2.405 1.603 1.268 2.605 3.072 3.006 5.41.467 2.337.675 5.727.675 10.068v82.201c0 2.939-.1 5.426-.3 7.363-.2 1.87-.6 3.49-1.202 4.96-.6 1.402-1.294 2.497-2.029 3.232-.735.734-1.845 1.342-3.38 1.877a22.24 22.24 0 0 1-4.585.902c-1.469.134-3.572.32-6.31.451-.601.601-.902 1.711-.902 3.38 0 1.604.301 2.706.902 3.308 13.358-.266 22.19-.377 26.598-.377 4.007 0 12.824.107 26.449.377.601-.602.902-1.704.902-3.307 0-1.67-.3-2.78-.902-3.38-2.738-.136-4.85-.32-6.387-.452a22.54 22.54 0 0 1-4.507-.902c-1.536-.535-2.646-1.143-3.381-1.877-.735-.735-1.428-1.83-2.03-3.233-.6-1.469-1.002-3.088-1.203-4.959-.2-1.937-.3-4.424-.3-7.363v-82.2c0-4.342.2-7.731.601-10.07.468-2.337 1.47-4.14 3.006-5.41 1.603-1.335 3.315-2.136 5.186-2.404 1.936-.334 4.94-.552 9.015-.752.601-.601.903-1.785.903-3.455s-.302-2.78-.903-3.38c-13.358.265-22.191.376-26.6.376-4.007 0-12.821-.107-26.447-.377zm869.945 0c-.602.602-.901 1.711-.901 3.381s.3 2.854.9 3.455c4.075.266 7.665 1.771 10.67 4.51 3.073 2.738 4.893 5.558 5.561 8.564v85.583c0 3.139-.1 5.744-.3 7.814-.135 2.07-.533 3.872-1.201 5.409-.6 1.536-1.22 2.739-1.955 3.607-.668.801-1.852 1.502-3.455 2.104-1.536.6-3.048 1.01-4.584 1.277-1.47.2-3.572.485-6.31.752-.602.601-.903 1.711-.903 3.38 0 1.604.3 2.706.902 3.307 13.358-.265 20.98-.377 22.916-.377 1.536 0 9.143.108 22.768.377.601-.6.902-1.703.902-3.306 0-1.67-.3-2.78-.902-3.381-2.806-.27-4.917-.552-6.387-.752-1.402-.266-2.905-.667-4.508-1.201-1.603-.602-2.789-1.304-3.457-2.106-.668-.801-1.285-1.919-1.953-3.455-.668-1.536-1.153-3.34-1.353-5.41-.135-2.137-.15-4.833-.15-8.039v-62.815c0-3.874.1-6.487.3-7.89s.618-2.105 1.353-2.105c1.069 0 3.372 2.213 6.912 6.688l71.683 90.468c2.405 3.273 5.117 4.885 8.19 4.885 1.469 0 2.579-.52 3.38-1.654.869-1.136 1.354-2.722 1.354-4.659V288.8c0-4.675.2-8.275.601-10.746.468-2.538 1.47-4.543 3.006-6.012 1.603-1.47 3.313-2.378 5.184-2.78 1.937-.466 4.943-.875 9.017-1.276.602-.602.9-1.788.9-3.457s-.3-2.78-.9-3.381c-13.358.265-20.981.377-22.918.377-1.536 0-9.142-.108-22.767-.377-.601.601-.9 1.711-.9 3.38s.3 2.857.9 3.458c2.404.269 4.217.476 5.486.676 1.269.134 2.67.425 4.207.826 1.537.334 2.64.752 3.307 1.353.734.601 1.52 1.395 2.254 2.33.801.935 1.31 2.136 1.578 3.606.27 1.469.476 3.172.676 5.109.2 1.87.3 4.176.3 6.914v68.525c0 2.27-.1 3.873-.3 4.808-.135.935-.533 1.428-1.201 1.428-.335 0-.652-.185-1.053-.452-.334-.265-.826-.767-1.427-1.501l-1.729-2.108-2.555-3.306-3.005-3.983-70.33-90.692zm473.078 5.934v.002c18.166 0 27.275 9.535 27.275 28.703 0 6.212-.81 11.505-2.479 15.78-1.67 4.207-4.166 7.413-7.44 9.616-3.205 2.204-6.803 3.724-10.743 4.659-3.874.868-8.483 1.353-13.826 1.353h-9.768v-47.039c0-8.749 5.626-13.074 16.98-13.074zm-811.662 1.053c8.55 0 16.18 1.387 22.993 4.058 6.879 2.672 12.488 6.186 16.83 10.594 4.408 4.341 8.106 9.46 11.045 15.404s5.036 12.047 6.238 18.258c1.203 6.145 1.803 12.548 1.803 19.16 0 8.082-.995 15.195-2.931 21.34-1.87 6.078-4.383 10.996-7.588 14.803s-7.205 6.914-11.948 9.318a54.833 54.833 0 0 1-14.652 4.883c-5.01.868-10.535 1.354-16.68 1.354-6.478 0-11.389-.486-14.728-1.354-3.34-.935-5.443-2.045-6.31-3.38-.869-1.336-1.354-3.24-1.354-5.712v-98.659c0-6.679 5.795-10.068 17.283-10.068z" fill="#cef9ff"/></g></svg>