<?xml version="1.0" encoding="UTF-8"?>
<svg xmlns="http://www.w3.org/2000/svg">
    <symbol id="create" viewBox="0 0 24 24">
        <path d="m7 2-3.5703 3.5703v12.859h4.2812v3.5703l3.5781-3.5703h2.8516l6.4297-6.4297v-10h-13.57zm0.71094 1.4297h11.43v7.8594l-2.8516 2.8516h-2.8594l-2.5 2.5v-2.5h-3.2188v-10.711zm3.9297 2.5v4.2813h1.4297v-4.2813h-1.4297zm3.9297 0v4.2813h1.4297v-4.2813h-1.4297zm5.209 7.2754c-0.14 0-0.27977 0.05125-0.38477 0.15625l-1 1 2.0488 2.0508 1-1c0.21-0.21 0.21-0.55953 0-0.76953l-1.2793-1.2812c-0.105-0.105-0.24476-0.15625-0.38476-0.15625zm-1.9746 1.7363-6.0605 6.0605v2.0605h2.0605l6.0488-6.0703-2.0488-2.0508z"/>
    </symbol>
    <symbol id="join" viewBox="0 0 24 24">
        <path d="m7 2-3.5703 3.5703v12.859h4.2812v3.5703l3.5781-3.5703h2.8516l6.4297-6.4297v-10h-13.57zm0.71094 1.4297h11.43v7.8594l-2.8516 2.8516h-2.8594l-2.5 2.5v-2.5h-3.2188v-10.711zm3.9297 2.5v4.2813h1.4297v-4.2813h-1.4297zm3.9297 0v4.2813h1.4297v-4.2813h-1.4297zm5 10.07v2h-4v2h4v2l3-3-3-3z"/>
    </symbol>
</svg>
