<svg width="800" height="800" xml:space="preserve" xmlns="http://www.w3.org/2000/svg"><path d="M731.222 338.852c-8.427-44.498-32.38-72.217-56.928-89.357-25.388-17.726-55.797-26.834-86.76-26.834H148.09c-15.286 0-21.14 14.925-21.2 22.4-.006.976.03 4.877.03 4.877s-.722 194.408.642 298.246c4.147 61.302 65.57 61.282 65.57 61.282s200.528-.588 296.699-1.185c4.51-.03 9.014-.515 13.391-1.61 54.756-13.7 60.421-64.569 59.836-92.925 110.061 6.114 187.715-71.55 168.156-174.902M607.577 439.74c-23.473 2.933-42.543.73-42.543.73V296.74h28.882c19.089 0 37.501 7.949 49.957 22.414 8.768 10.183 15.782 24.516 15.782 44.315 0 48.397-24.938 67.465-52.078 76.264" fill="#fff"/><path d="M731.222 338.852c-8.427-44.498-32.38-72.217-56.928-89.357-25.388-17.726-55.797-26.834-86.76-26.834H148.09c-15.286 0-21.14 14.925-21.2 22.4-.006.976.03 4.877.03 4.877s-.722 194.408.642 298.246c4.147 61.302 65.57 61.282 65.57 61.282s200.528-.588 296.699-1.185c4.51-.03 9.014-.515 13.391-1.61 54.756-13.7 60.421-64.569 59.836-92.925 110.061 6.114 187.715-71.55 168.156-174.902M607.577 439.74c-23.473 2.933-42.543.73-42.543.73V296.74h28.882c19.089 0 37.501 7.949 49.957 22.414 8.768 10.183 15.782 24.516 15.782 44.315 0 48.397-24.938 67.465-52.078 76.264" fill="none" stroke="#2f3542" stroke-miterlimit="10" stroke-width="9.333"/><path d="M342.138 528.847c4.78 2.406 7.833-.584 7.833-.584s69.941-63.836 101.45-100.599c28.026-32.887 29.852-88.31-18.276-109.019-48.128-20.707-87.726 24.362-87.726 24.362-34.339-37.767-86.308-35.855-110.346-10.295-24.037 25.559-15.644 69.429 2.29 93.843 16.832 22.92 90.82 88.864 102.037 100.017 0 0 .815.853 2.738 2.275" fill="#f14255"/></svg>