<svg width="37" height="37" xmlns="http://www.w3.org/2000/svg"><defs><filter id="a" x="0" y="0" width="1" height="1" color-interpolation-filters="sRGB"><feGaussianBlur/></filter><filter id="c" x="-.019" y="-.02" width="1.037" height="1.04" color-interpolation-filters="sRGB"><feGaussianBlur stdDeviation=".443"/></filter><filter id="d" x="-.055" y="-.059" width="1.111" height="1.118" color-interpolation-filters="sRGB"><feGaussianBlur stdDeviation="1.319"/></filter><filter id="b" x="-.057" y="-.06" width="1.113" height="1.12" color-interpolation-filters="sRGB"><feGaussianBlur stdDeviation="1.344"/></filter></defs><g transform="matrix(.57991 0 0 .39766 24.775 -10.912)" filter="url(#a)"><path d="M-26.607 27.44H4.964A16.08 16.08 0 0 1 21.08 43.556v60.813a16.08 16.08 0 0 1-16.116 16.116h-31.57a16.08 16.08 0 0 1-16.117-16.116V43.556A16.08 16.08 0 0 1-26.607 27.44z" fill="#191919"/><path d="M-26.607 27.44c49.584.134 47.401-2.304 47.687 76.929a16.08 16.08 0 0 1-16.116 16.116h-31.57a16.08 16.08 0 0 1-16.117-16.116V43.556A16.08 16.08 0 0 1-26.607 27.44z" fill="#161616"/><path d="M-26.607 27.44c47.33.134 47.52-.056 47.687 76.929a16.08 16.08 0 0 1-16.116 16.116h-31.57a16.08 16.08 0 0 1-16.117-16.116V43.556A16.08 16.08 0 0 1-26.607 27.44z" fill="#222"/><g stroke-width=".108"><path d="m17.868 40.511-.027 1.587c-2.506.104-4.013 2.055-4.976 5.24-2.23 7.518-9.212 31.214-13.85 46.638h-1.213l-7.304-25.113c-2.898 8.271-6.09 16.907-8.847 25.113-.026.039-1.337 0-1.337-.04-4.183-14.266-8.57-28.43-12.762-42.735-1.017-3.473-4.406-9.104-6.742-9.065 0-.403-.027-1.3-.027-1.847h14.438v1.808c-1.712.143-4.709 1.73-3.862 4.448 1.954 6.463 9.24 31.252 11.201 37.533 1.338-3.863 5.155-14.202 6.716-18.572-1.24-3.68-5.226-17.414-6.493-20.81-.865-2.314-3.219-2.522-4.976-2.561v-1.808l12.708.039v1.704c-1.73.078-3.398 1.014-2.622 3.394 1.686 5.202 2.73 8.857 4.29 13.617.5-1.405 3.094-9.026 4.29-13.109.793-2.68-.348-3.72-3.443-3.824.027-.468 0-1.34.027-1.768 3.96-.04 9.908-.04 10.978-.078v1.768c-2.007.104-4.085 1.665-5.182 4.123l-5.279 15.971c.57 2.094 5.645 18.572 6.171 20.38L10.661 45.79c-.767-3.004-3.246-3.654-4.209-3.68v-1.808l11.397.143z" fill="#12e6ee" fill-opacity=".8" filter="url(#b)" transform="translate(-.143 9.783)"/><path d="m17.868 40.511-.027 1.587c-2.506.104-4.013 2.055-4.976 5.24-2.23 7.518-9.212 31.214-13.85 46.638h-1.213l-7.304-25.113c-2.898 8.271-6.09 16.907-8.847 25.113-.026.039-1.337 0-1.337-.04-4.183-14.266-8.57-28.43-12.762-42.735-1.017-3.473-4.406-9.104-6.742-9.065 0-.403-.027-1.3-.027-1.847h14.438v1.808c-1.712.143-4.709 1.73-3.862 4.448 1.954 6.463 9.24 31.252 11.201 37.533 1.338-3.863 5.155-14.202 6.716-18.572-1.24-3.68-5.226-17.414-6.493-20.81-.865-2.314-3.219-2.522-4.976-2.561v-1.808l12.708.039v1.704c-1.73.078-3.398 1.014-2.622 3.394 1.686 5.202 2.73 8.857 4.29 13.617.5-1.405 3.094-9.026 4.29-13.109.793-2.68-.348-3.72-3.443-3.824.027-.468 0-1.34.027-1.768 3.96-.04 9.908-.04 10.978-.078v1.768c-2.007.104-4.085 1.665-5.182 4.123l-5.279 15.971c.57 2.094 5.645 18.572 6.171 20.38L10.661 45.79c-.767-3.004-3.246-3.654-4.209-3.68v-1.808l11.397.143z" fill="#b6d3cf" fill-opacity=".9" filter="url(#c)" transform="translate(-.143 9.783)"/><path d="m17.868 40.511-.027 1.587c-2.506.104-4.013 2.055-4.976 5.24-2.23 7.518-9.212 31.214-13.85 46.638h-1.213l-7.304-25.113c-2.898 8.271-6.09 16.907-8.847 25.113-.026.039-1.337 0-1.337-.04-4.183-14.266-8.57-28.43-12.762-42.735-1.017-3.473-4.406-9.104-6.742-9.065 0-.403-.027-1.3-.027-1.847h14.438v1.808c-1.712.143-4.709 1.73-3.862 4.448 1.954 6.463 9.24 31.252 11.201 37.533 1.338-3.863 5.155-14.202 6.716-18.572-1.24-3.68-5.226-17.414-6.493-20.81-.865-2.314-3.219-2.522-4.976-2.561v-1.808l12.708.039v1.704c-1.73.078-3.398 1.014-2.622 3.394 1.686 5.202 2.73 8.857 4.29 13.617.5-1.405 3.094-9.026 4.29-13.109.793-2.68-.348-3.72-3.443-3.824.027-.468 0-1.34.027-1.768 3.96-.04 9.908-.04 10.978-.078v1.768c-2.007.104-4.085 1.665-5.182 4.123l-5.279 15.971c.57 2.094 5.645 18.572 6.171 20.38L10.661 45.79c-.767-3.004-3.246-3.654-4.209-3.68v-1.808l11.397.143z" fill="#cce7f8" fill-opacity=".3" filter="url(#d)" transform="translate(-.143 9.783)"/><path d="m17.725 50.294-.027 1.587c-2.506.104-4.013 2.055-4.977 5.241-2.229 7.517-9.212 31.213-13.85 46.637H-2.34l-7.304-25.113c-2.899 8.272-6.091 16.907-8.847 25.113-.027.04-1.338 0-1.338-.039-4.182-14.267-8.57-28.43-12.762-42.736-1.016-3.472-4.405-9.104-6.742-9.065 0-.403-.026-1.3-.026-1.846h14.438v1.807c-1.713.143-4.71 1.73-3.862 4.448 1.953 6.464 9.24 31.252 11.201 37.533 1.338-3.863 5.155-14.202 6.715-18.572-1.24-3.68-5.226-17.414-6.492-20.809-.865-2.315-3.22-2.523-4.976-2.562V50.11l12.708.04v1.703c-1.73.078-3.398 1.014-2.622 3.394 1.685 5.202 2.729 8.857 4.29 13.617.499-1.404 3.094-9.025 4.289-13.109.794-2.679-.348-3.72-3.442-3.823.026-.468 0-1.34.026-1.769 3.96-.039 9.908-.039 10.978-.078v1.769c-2.006.104-4.084 1.664-5.181 4.123l-5.28 15.97c.571 2.094 5.646 18.573 6.172 20.38l10.916-36.753c-.767-3.005-3.246-3.655-4.21-3.68v-1.809l11.397.143z" fill="#cce7f8"/></g></g></svg>