<?xml version="1.0" encoding="UTF-8"?>
<svg preserveAspectRatio="xMinYMax slice" width="250" height="216" version="1.1" viewBox="0 0 66.145832 57.149999" xmlns="http://www.w3.org/2000/svg" xmlns:cc="http://creativecommons.org/ns#" xmlns:dc="http://purl.org/dc/elements/1.1/" xmlns:rdf="http://www.w3.org/1999/02/22-rdf-syntax-ns#">
 <defs>
  <filter id="neon" x="-.15772408" y="-.13659306" width="1.3154482" height="1.2731861" color-interpolation-filters="sRGB">
   <feGaussianBlur stdDeviation="6.4283247"/>
  </filter>
  <clipPath id="clipPath">
   <rect x="-383.14575" y="42.368916" width="195.63251" height="169.42274" fill="#f75655" fill-rule="evenodd" opacity=".456"/>
  </clipPath>
 </defs>
 <g transform="translate(435.30647,-134.9869)">
  <g transform="matrix(.33811269 0 0 .3381127 -305.76003 120.52745)" clip-path="url(#clipPath)" onload="">
   <path d="m-285.32948 155.31741v56.47425l-48.90813 28.23712-48.90813-28.23712v-56.47425l48.90813-28.23712z" fill="#375655" fill-rule="evenodd"/>
   <path d="m-285.32948 155.31741v56.47425l-48.90813 28.23712-48.90813-28.23712v-56.47425l48.90813-28.23712z" fill="none" stroke="#0dd3c2" stroke-opacity=".97959182" stroke-width="2.11666656"/>
   <path d="m-285.32948 155.31741v56.47425l-48.90813 28.23712-48.90813-28.23712v-56.47425l48.90813-28.23712z" fill="none" filter="url(#neon)" stroke="#0dd3c2" stroke-width="8.46666622"/>
   <path d="m-187.51323 155.31741v56.47425l-48.90813 28.23712-48.90813-28.23712v-56.47425l48.90813-28.23712z" fill="#375655" fill-rule="evenodd"/>
   <path d="m-187.51323 155.31741v56.47425l-48.90813 28.23712-48.90813-28.23712v-56.47425l48.90813-28.23712z" fill="none" stroke="#0dd3c2" stroke-opacity=".97959182" stroke-width="2.11666656"/>
   <path d="m-187.51323 155.31741v56.47425l-48.90813 28.23712-48.90813-28.23712v-56.47425l48.90813-28.23712z" fill="none" filter="url(#neon)" stroke="#0dd3c2" stroke-width="8.46666622"/>
   <path d="m-236.42134 70.606048v56.474242l-48.90813 28.23712-48.90813-28.23712v-56.474241l48.90813-28.237122z" fill="#375655" fill-rule="evenodd"/>
   <path d="m-236.42134 70.606048v56.474242l-48.90813 28.23712-48.90813-28.23712v-56.474241l48.90813-28.237122z" fill="none" stroke="#0dd3c2" stroke-opacity=".97959182" stroke-width="2.11666656"/>
   <path d="m-236.42137 70.606048v56.474242l-48.90813 28.23712-48.90813-28.23712v-56.474241l48.90813-28.237122z" fill="none" filter="url(#neon)" stroke="#0dd3c2" stroke-width="8.46666622"/>
   <path d="m-138.60508 70.606048v56.474242l-48.90813 28.23712-48.90813-28.23712v-56.474241l48.90813-28.237122z" fill="#375655" fill-rule="evenodd"/>
   <path d="m-138.60508 70.606048v56.474242l-48.90813 28.23712-48.90813-28.23712v-56.474241l48.90813-28.237122z" fill="none" stroke="#0dd3c2" stroke-opacity=".97959182" stroke-width="2.11666656"/>
   <path d="m-138.6051 70.606048v56.474242l-48.90813 28.23712-48.90813-28.23712v-56.474241l48.90813-28.237122z" fill="none" filter="url(#neon)" stroke="#0dd3c2" stroke-width="8.46666622"/>
   <path d="m-334.23762 70.606048v56.474242l-48.90813 28.23712-48.90813-28.23712v-56.474241l48.90813-28.237122z" fill="#375655" fill-rule="evenodd"/>
   <path d="m-334.23762 70.606048v56.474242l-48.90813 28.23712-48.90813-28.23712v-56.474241l48.90813-28.237122z" fill="none" stroke="#0dd3c2" stroke-opacity=".97959182" stroke-width="2.11666656"/>
   <path d="m-334.23762 70.606048v56.474242l-48.90813 28.23712-48.90813-28.23712v-56.474241l48.90813-28.237122z" fill="none" filter="url(#neon)" stroke="#0dd3c2" stroke-width="8.46666622"/>
   <path d="m-285.32951-14.105315v56.474243l-48.90813 28.237122-48.90813-28.237122v-56.474243l48.90813-28.237122z" fill="#375655" fill-rule="evenodd"/>
   <path d="m-285.32951-14.105315v56.474243l-48.90813 28.237122-48.90813-28.237122v-56.474243l48.90813-28.237122z" fill="none" stroke="#0dd3c2" stroke-opacity=".97959182" stroke-width="2.11666656"/>
   <path d="m-285.32951-14.105315v56.474243l-48.90813 28.237122-48.90813-28.237122v-56.474243l48.90813-28.237122z" fill="none" filter="url(#neon)" stroke="#0dd3c2" stroke-width="8.46666622"/>
   <path d="m-187.51326-14.105315v56.474243l-48.90813 28.237122-48.90813-28.237122v-56.474243l48.90813-28.237122z" fill="#375655" fill-rule="evenodd"/>
   <path d="m-187.51326-14.105315v56.474243l-48.90813 28.237122-48.90813-28.237122v-56.474243l48.90813-28.237122z" fill="none" stroke="#0dd3c2" stroke-opacity=".97959182" stroke-width="2.11666656"/>
   <path d="m-187.51327-14.105315v56.474243l-48.90813 28.237122-48.90813-28.237122v-56.474243l48.90813-28.237122z" fill="none" filter="url(#neon)" stroke="#0dd3c2" stroke-width="8.46666622"/>
  </g>
 </g>
</svg>
