<?xml version="1.0" encoding="UTF-8"?>
<svg width="37" height="37" version="1.1" viewBox="0 0 37 37" xmlns="http://www.w3.org/2000/svg">
 <defs>
  <filter id="filter4446" x="-1.4327e-6" y="-1.0052e-6" width="1" height="1" color-interpolation-filters="sRGB">
   <feGaussianBlur stdDeviation="3.6478099e-05"/>
  </filter>
  <filter id="filter2553" x="-.018625" y="-.019798" width="1.0372" height="1.0396" color-interpolation-filters="sRGB">
   <feGaussianBlur stdDeviation="0.4429906"/>
  </filter>
  <filter id="filter2816" x="-.055472" y="-.058965" width="1.1109" height="1.1179" color-interpolation-filters="sRGB">
   <feGaussianBlur stdDeviation="1.3194068"/>
  </filter>
  <filter id="filter2979" x="-.056513" y="-.060073" width="1.113" height="1.1201" color-interpolation-filters="sRGB">
   <feGaussianBlur stdDeviation="1.3441838"/>
  </filter>
 </defs>
 <text x="2.8827183" y="21.844383" fill="#000000" font-family="sans-serif" font-size="40px" letter-spacing="0px" word-spacing="0px" style="line-height:1.25" xml:space="preserve"><tspan x="2.8827183" y="57.235004"/></text>
 <g transform="matrix(.59561 0 0 .59561 1.3288 -1.9593)">
  <g transform="translate(.45917 .45917)">
   <g transform="translate(62.41 -7.355)">
    <g transform="translate(7.5281 -2.5567)">
     <g transform="matrix(1.0121 0 0 .69402 -30.91 -7.6422)">
      <rect x="-57.391" y="16.066" width="90.612" height="128.52" ry="0" opacity="0" stroke-width=".06811" style="paint-order:markers fill stroke"/>
      <g transform="matrix(.962 0 0 .962 -.12066 2.9739)" filter="url(#filter4446)">
       <g transform="translate(-.64663)">
        <g>
         <path d="m-25.96 27.44h31.571c8.9281 0 16.116 7.1876 16.116 16.116v60.813c0 8.9281-7.1876 16.116-16.116 16.116h-31.571c-8.9281 0-16.116-7.1876-16.116-16.116v-60.813c0-8.9281 7.1876-16.116 16.116-16.116z" fill="#191919"/>
         <path d="m-25.96 27.44c49.584 0.13412 47.401-2.3042 47.687 76.929 0 8.9281-7.1876 16.116-16.116 16.116h-31.571c-8.9281 0-16.116-7.1876-16.116-16.116v-60.813c0-8.9281 7.1876-16.116 16.116-16.116z" fill="#161616"/>
         <path d="m-25.96 27.44c47.33 0.13412 47.52-0.05586 47.687 76.929 0 8.9281-7.1876 16.116-16.116 16.116h-31.571c-8.9281 0-16.116-7.1876-16.116-16.116v-60.813c0-8.9281 7.1876-16.116 16.116-16.116z" fill="#222"/>
        </g>
        <g transform="translate(.50315 9.7833)" stroke-width=".1077">
         <path d="m17.868 40.511-0.02673 1.5867c-2.506 0.10404-4.0131 2.0548-4.9763 5.2411-2.2295 7.5171-9.2124 31.213-13.85 46.637h-1.2129l-7.3039-25.113c-2.8984 8.2714-6.091 16.907-8.8467 25.113-0.0268 0.039-1.3377 0-1.3377-0.0391-4.1826-14.267-8.5702-28.43-12.762-42.736-1.0167-3.4724-4.4055-9.1037-6.742-9.0647 0-0.40316-0.02679-1.3005-0.02679-1.8468h14.438v1.8077c-1.7123 0.14306-4.7087 1.7297-3.8615 4.4478 1.9531 6.4637 9.2391 31.252 11.201 37.533 1.3377-3.8626 5.1546-14.202 6.7153-18.572-1.2396-3.6805-5.226-17.414-6.4923-20.809-0.86506-2.3149-3.2194-2.523-4.9763-2.5621v-1.8077l12.708 0.03901v1.7037c-1.7301 0.07803-3.3978 1.0144-2.6219 3.3944 1.6855 5.2021 2.7289 8.8566 4.2896 13.617 0.49941-1.4046 3.0946-9.0257 4.2896-13.109 0.79371-2.6791-0.34781-3.7195-3.4424-3.8236 0.02678-0.46819 0-1.3396 0.02678-1.7687 3.9596-0.03901 9.908-0.03901 10.978-0.07803v1.7687c-2.0066 0.10409-4.0845 1.6647-5.1814 4.1227l-5.2795 15.971c0.57075 2.0939 5.6451 18.572 6.1713 20.379l10.916-36.753c-0.76695-3.0042-3.2462-3.6545-4.2093-3.6805v-1.8077l11.397 0.14306z" fill="#12e6ee" fill-opacity=".8" filter="url(#filter2979)"/>
         <path d="m17.868 40.511-0.02673 1.5867c-2.506 0.10404-4.0131 2.0548-4.9763 5.2411-2.2295 7.5171-9.2124 31.213-13.85 46.637h-1.2129l-7.3039-25.113c-2.8984 8.2714-6.091 16.907-8.8467 25.113-0.0268 0.039-1.3377 0-1.3377-0.0391-4.1826-14.267-8.5702-28.43-12.762-42.736-1.0167-3.4724-4.4055-9.1037-6.742-9.0647 0-0.40316-0.02679-1.3005-0.02679-1.8468h14.438v1.8077c-1.7123 0.14306-4.7087 1.7297-3.8615 4.4478 1.9531 6.4637 9.2391 31.252 11.201 37.533 1.3377-3.8626 5.1546-14.202 6.7153-18.572-1.2396-3.6805-5.226-17.414-6.4923-20.809-0.86506-2.3149-3.2194-2.523-4.9763-2.5621v-1.8077l12.708 0.03901v1.7037c-1.7301 0.07803-3.3978 1.0144-2.6219 3.3944 1.6855 5.2021 2.7289 8.8566 4.2896 13.617 0.49941-1.4046 3.0946-9.0257 4.2896-13.109 0.79371-2.6791-0.34781-3.7195-3.4424-3.8236 0.02678-0.46819 0-1.3396 0.02678-1.7687 3.9596-0.03901 9.908-0.03901 10.978-0.07803v1.7687c-2.0066 0.10409-4.0845 1.6647-5.1814 4.1227l-5.2795 15.971c0.57075 2.0939 5.6451 18.572 6.1713 20.379l10.916-36.753c-0.76695-3.0042-3.2462-3.6545-4.2093-3.6805v-1.8077l11.397 0.14306z" fill="#b6d3cf" fill-opacity=".9" filter="url(#filter2553)"/>
         <path d="m17.868 40.511-0.02673 1.5867c-2.506 0.10404-4.0131 2.0548-4.9763 5.2411-2.2295 7.5171-9.2124 31.213-13.85 46.637h-1.2129l-7.3039-25.113c-2.8984 8.2714-6.091 16.907-8.8467 25.113-0.0268 0.039-1.3377 0-1.3377-0.0391-4.1826-14.267-8.5702-28.43-12.762-42.736-1.0167-3.4724-4.4055-9.1037-6.742-9.0647 0-0.40316-0.02679-1.3005-0.02679-1.8468h14.438v1.8077c-1.7123 0.14306-4.7087 1.7297-3.8615 4.4478 1.9531 6.4637 9.2391 31.252 11.201 37.533 1.3377-3.8626 5.1546-14.202 6.7153-18.572-1.2396-3.6805-5.226-17.414-6.4923-20.809-0.86506-2.3149-3.2194-2.523-4.9763-2.5621v-1.8077l12.708 0.03901v1.7037c-1.7301 0.07803-3.3978 1.0144-2.6219 3.3944 1.6855 5.2021 2.7289 8.8566 4.2896 13.617 0.49941-1.4046 3.0946-9.0257 4.2896-13.109 0.79371-2.6791-0.34781-3.7195-3.4424-3.8236 0.02678-0.46819 0-1.3396 0.02678-1.7687 3.9596-0.03901 9.908-0.03901 10.978-0.07803v1.7687c-2.0066 0.10409-4.0845 1.6647-5.1814 4.1227l-5.2795 15.971c0.57075 2.0939 5.6451 18.572 6.1713 20.379l10.916-36.753c-0.76695-3.0042-3.2462-3.6545-4.2093-3.6805v-1.8077l11.397 0.14306z" fill="#cce7f8" fill-opacity=".3" filter="url(#filter2816)"/>
         <path d="m17.868 40.511-0.02672 1.5866c-2.506 0.10404-4.0131 2.0548-4.9763 5.2412-2.2295 7.5171-9.2124 31.213-13.85 46.637h-1.2129l-7.3039-25.113c-2.8984 8.2714-6.091 16.907-8.8467 25.113-0.02679 0.039-1.3377 0-1.3377-0.0391-4.1826-14.267-8.5702-28.43-12.762-42.736-1.0167-3.4724-4.4055-9.1037-6.742-9.0647 0-0.40317-0.02679-1.3005-0.02679-1.8468h14.438v1.8077c-1.7123 0.14306-4.7087 1.7297-3.8615 4.4478 1.9531 6.4637 9.2391 31.252 11.201 37.533 1.3377-3.8626 5.1546-14.202 6.7153-18.572-1.2396-3.6805-5.226-17.414-6.4923-20.809-0.86506-2.315-3.2194-2.523-4.9763-2.562v-1.8077l12.708 0.039v1.7037c-1.7301 0.078-3.3978 1.0144-2.6219 3.3944 1.6855 5.2021 2.7289 8.8566 4.2896 13.617 0.49941-1.4046 3.0946-9.0257 4.2896-13.109 0.79371-2.6791-0.34781-3.7195-3.4424-3.8236 0.026786-0.4682 0-1.3396 0.026786-1.7687 3.9596-0.039 9.908-0.039 10.978-0.078v1.7687c-2.0066 0.10409-4.0845 1.6647-5.1814 4.1228l-5.2795 15.971c0.57075 2.0939 5.6451 18.572 6.1713 20.379l10.916-36.753c-0.76695-3.0042-3.2462-3.6545-4.2093-3.6805v-1.8077l11.397 0.14306z" fill="#cce7f8"/>
        </g>
       </g>
      </g>
     </g>
    </g>
   </g>
  </g>
 </g>
</svg>
